<svg viewBox="0 0 89 31" xmlns="http://www.w3.org/2000/svg" xmlns:xlink="http://www.w3.org/1999/xlink"><defs><path id="a" d="M.50874.1257H18.621V21.76H.50874z"/><path id="c" d="M.58643.1257H16.752V21.76H.58643z"/></defs><g fill="#fff" fill-rule="evenodd"><path d="M16.953 29.925c0 .11712-.02944.21504-.08768.29504-.05888.08064-.15296.14976-.28416.208s-.3136.10176-.5472.1312-.5248.04416-.87488.04416c-.3648 0-.66368-.01472-.89664-.04416-.2336-.02944-.416-.07296-.5472-.1312s-.22592-.12736-.28416-.208c-.05888-.08-.08768-.17792-.08768-.29504V18.397c0-1.1226-.08704-2.0269-.2624-2.7123-.17472-.68544-.43072-1.2762-.76544-1.7722-.336-.49536-.76928-.87488-1.3011-1.1373-.53312-.2624-1.1488-.3936-1.849-.3936-.90432 0-1.8086.32064-2.7123.96256-.90432.64192-1.8528 1.5821-2.8442 2.8218v13.759c0 .11712-.02944.21504-.08704.29504-.05888.08064-.1536.14976-.2848.208s-.3136.10176-.54656.1312c-.2336.02944-.53248.04416-.89728.04416-.34944 0-.64128-.01472-.87488-.04416s-.4192-.07296-.55808-.1312-.23296-.12736-.28352-.208C.02496 30.14 0 30.04208 0 29.92496V.69996C0 .58348.02496.48108.0768.3934.12736.30636.22144.2334.36032.17516S.6848.07276.9184.04396c.2336-.02944.52544-.04416.87488-.04416.3648 0 .66368.01472.89728.04416.23296.0288.41536.07296.54656.1312s.22592.1312.2848.21824c.0576.08768.08704.19008.08704.30656v11.791c1.0355-1.0938 2.0781-1.9066 3.1283-2.439s2.1069-.79872 3.1718-.79872c1.3126 0 2.4173.22272 3.3139.66752.89728.4448 1.6224 1.0387 2.1766 1.7824.5536.74368.95232 1.6154 1.1923 2.6144.24128.99904.36096 2.2061.36096 3.6205v11.987z"/><g transform="translate(19.84 9.1275)"><mask id="b"><use xlink:href="#a"/></mask><path d="M14.99 9.0287c.04352-1.8957-.37824-3.383-1.2659-4.4627-.88704-1.079-2.2042-1.6186-3.9501-1.6186-.89536 0-1.68.16768-2.3552.50304-.6752.336-1.2403.78016-1.6954 1.3344-.4544.55424-.8064 1.2-1.056 1.936-.2496.73664-.38848 1.5059-.41792 2.3078h10.74zm3.6314 1.072c0 .56832-.14336.97344-.4288 1.2141s-.6112.36096-.97728.36096h-12.966c0 1.0938.11008 2.0781.32896 2.953.22016.87488.58624 1.6262 1.0995 2.2534.51264.62656 1.1795 1.1078 2 1.4432.82048.336 1.8246.50368 3.0118.50368.9376 0 1.7728-.0768 2.5056-.22976.7328-.1536 1.3664-.32448 1.9014-.51456.53504-.18944.97408-.36096 1.3197-.51392.34432-.15296.60416-.22976.78016-.22976.1024 0 .19392.0256.27456.0768s.14272.128.18688.22976c.04352.10176.0768.24448.09856.42624.02176.1824.03328.40512.03328.66752 0 .18944-.00768.35392-.02176.49216-.01536.13888-.03264.2624-.05504.37184-.02112.10944-.05824.208-.1088.29504-.05184.08768-.11776.17152-.19776.25152-.08.08064-.3168.21184-.7104.39424s-.90432.36096-1.5315.53568-1.353.33152-2.1766.4704c-.82368.13824-1.7024.208-2.6355.208-1.6186 0-3.0374-.22656-4.2547-.6784-1.2179-.45184-2.2419-1.1226-3.0733-2.0128-.83136-.88896-1.4592-2.0045-1.8816-3.3466-.42304-1.3414-.63424-2.9018-.63424-4.681 0-1.6922.21888-3.2122.656-4.5613.43776-1.3485 1.0682-2.4934 1.8918-3.4342.82432-.9408 1.8195-1.6627 2.9869-2.1658C7.20932.3771 8.51492.12558 9.95872.12558c1.5456 0 2.8614.24832 3.9482.74368 1.0861.496 1.9795 1.1629 2.6797 2.0013.70016.83904 1.2141 1.8234 1.5424 2.9536.32768 1.1302.49216 2.3373.49216 3.6198v.65664z" mask="url(#b)"/></g><g transform="translate(40.32 9.1275)"><mask id="d"><use xlink:href="#c"/></mask><path d="M13.164 11.829h-3.0842c-.992 0-1.8528.08384-2.5818.25152s-1.3344.41536-1.815.74368c-.48128.32832-.8352.72192-1.0611 1.1814-.22656.45952-.3392.98816-.3392 1.5859 0 1.0208.32448 1.8342.97344 2.439.64832.60544 1.5565.90752 2.7232.90752.94784 0 1.8266-.24064 2.6368-.72192.80832-.48064 1.6576-1.2173 2.5478-2.2093v-4.1779zm3.5872 8.9907c0 .17472-.05824.30592-.17472.3936-.11712.08768-.27776.15296-.48128.19712-.20416.04352-.50304.06528-.89664.06528-.37952 0-.68224-.02176-.90752-.06528-.2272-.04416-.39104-.10944-.4928-.19712-.1024-.08768-.15296-.21888-.15296-.3936v-1.9686c-.8608.9184-1.8195 1.6333-2.8768 2.1434-1.0579.51072-2.1766.76608-3.3574.76608-1.0355 0-1.9725-.13504-2.8115-.40512-.8384-.26944-1.5526-.65984-2.1434-1.1699-.59008-.51072-1.0502-1.1379-1.3779-1.8816-.32832-.74368-.49216-1.5891-.49216-2.5376 0-1.1078.22528-2.0704.67776-2.887.45184-.81664 1.1008-1.495 1.9469-2.0346s1.8816-.944 3.1066-1.2141c1.225-.26944 2.6029-.40448 4.1344-.40448h2.7123v-1.5315c0-.7584-.08064-1.4291-.24064-2.0122-.16064-.58368-.4192-1.0682-.77632-1.4547-.35776-.38656-.82048-.6784-1.3894-.87552-.56832-.19648-1.2685-.29504-2.0998-.29504-.89024 0-1.6883.1056-2.3955.31744-.70784.2112-1.3267.4448-1.8586.69952-.53312.25536-.97792.48896-1.335.70016-.35776.21184-.62336.31744-.79808.31744-.11712 0-.21888-.02944-.30656-.08768s-.16448-.14592-.22912-.2624c-.06656-.11648-.11392-.26624-.14272-.44864-.02944-.1824-.04352-.38272-.04352-.6016 0-.36416.02496-.65216.07616-.864.0512-.2112.17472-.41152.37248-.6016.19584-.18944.53568-.41152 1.017-.66688s1.0349-.48896 1.6621-.70016 1.3126-.38656 2.0563-.5248c.74368-.13888 1.4944-.208 2.2534-.208 1.4144 0 2.6176.16064 3.609.48128s1.7939.79104 2.4064 1.4106c.61248.62016 1.0566 1.3894 1.3344 2.3078.27712.91904.41536 1.991.41536 3.216v13.278z" mask="url(#d)"/></g><path d="M73.041 11.528c0 .32064-.00768.59072-.02176.8096-.01536.21824-.04416.3904-.08768.51392-.04352.12416-.09856.21888-.16384.28416-.06592.06592-.15744.09856-.27328.09856-.11712 0-.25984-.03264-.42688-.09856-.16768-.06528-.35776-.1312-.56832-.19648-.21184-.06592-.44864-.128-.71168-.18624-.2624-.05824-.54656-.08768-.85312-.08768-.3648 0-.72128.0736-1.0714.21888-.35008.14592-.71872.38656-1.1053.72192-.38592.33536-.79104.78016-1.2134 1.3344-.42368.55424-.89024 1.2326-1.4003 2.0346v12.95c0 .11712-.02944.21568-.08768.29568s-.15296.14912-.28416.20736-.3136.10176-.54656.1312c-.23424.02944-.53248.04416-.89728.04416-.35008 0-.64192-.01472-.87488-.04416-.2336-.02944-.4192-.07296-.55808-.1312s-.23296-.12736-.28352-.20736c-.05184-.08-.07744-.17856-.07744-.29568v-19.688c0-.11648.0224-.21504.06592-.29504s.1312-.15296.2624-.21888c.1312-.06528.29888-.10944.50304-.1312s.47424-.03264.8096-.03264c.32064 0 .58688.01088.79872.03264.21056.02176.37504.06592.49216.1312.11584.06592.19968.13888.25152.21888.05056.08.07616.17856.07616.29504v2.8659c.53952-.78784 1.0464-1.4291 1.52-1.9251.4736-.49536.92288-.88576 1.3459-1.1699.4224-.2848.8416-.48128 1.2582-.59072.41472-.10944.83392-.16448 1.257-.16448.18944 0 .40512.01088.64512.03328.24128.02176.4928.06208.7552.12032s.4992.12352.71104.19648c.21056.07296.36096.14592.448.21888.08768.07296.14592.14208.17536.208.0288.06528.0544.14976.0768.25152.02112.10176.03584.25152.04352.448.00704.19712.01088.46336.01088.79872M88.139 28.481c0 .42304-.02944.7584-.08768 1.0061-.05888.24832-.14592.43072-.2624.5472s-.29184.22592-.5248.32768c-.2336.1024-.49984.18624-.79808.25216-.29952.06528-.61696.12032-.95232.16384s-.67072.06528-1.0061.06528c-1.0214 0-1.8963-.13504-2.6246-.40448-.7296-.26944-1.328-.67776-1.7939-1.225-.4672-.54656-.8064-1.2397-1.017-2.0781-.21184-.8384-.31744-1.8266-.31744-2.9638v-11.507h-2.7565c-.21888 0-.3936-.11648-.5248-.35008-.1312-.23296-.19712-.61248-.19712-1.1373 0-.27712.01856-.51008.0544-.70016.03648-.18944.08384-.34624.14272-.4704.05824-.12352.1344-.2112.22976-.2624.09472-.05056.20032-.0768.3168-.0768h2.7347v-4.681c0-.10176.02496-.19712.07616-.28416.0512-.08768.14592-.16448.2848-.22976.13824-.06592.32384-.11264.55744-.14208s.52544-.04416.87552-.04416c.36416 0 .66304.01472.89664.04416.23296.02944.41536.07616.5472.14208.1312.06528.22528.14208.28416.22976.05824.08704.08768.1824.08768.28416v4.681h5.0528c.11648 0 .21888.02624.30656.0768.08704.0512.1632.13888.22976.2624.06528.12416.11264.28096.14208.4704.0288.19008.04352.42304.04352.70016 0 .5248-.06592.90432-.19712 1.1373-.1312.2336-.30592.35008-.5248.35008h-5.0528v10.981c0 1.3562.19968 2.3814.6016 3.0739.40064.69248 1.1187 1.0387 2.1542 1.0387.33536 0 .63424-.03264.89728-.09856.2624-.06528.49536-.1344.69952-.20736s.37888-.14272.52544-.208c.14528-.06592.27648-.09856.3936-.09856.07232 0 .14272.01856.20736.0544.06656.03712.11712.10624.1536.208.03584.1024.06912.24064.09856.416.0288.17472.04352.3936.04352.656"/></g></svg>