<svg viewBox="0 0 71 61" xmlns="http://www.w3.org/2000/svg"><g fill="#fff" fill-rule="evenodd"><path d="M0 18.445l2.1882 2.14v3.83L0 26.554 2.5006 29 5 26.554l-2.1869-2.139v-3.83L5 18.445 2.5006 16zM12.54 10.812h3.918L18.58 13 21 10.5 18.58 8l-2.122 2.188H12.54L10.42 8 8 10.5l2.42 2.5zM8 18.5l2.499 2.5L13 18.5 10.499 16zM8 34.5l2.499 2.5L13 34.5 10.499 32zM8 26.5l2.499 2.5L13 26.5 10.499 24zM18.501 0L16 2.5 18.502 5 21 2.5 18.503 0zM18.501 16L16 18.5l2.501 2.5L21 18.5zM16 34.5l2.501 2.5L21 34.5 18.501 32zM18.501 24L16 26.5l2.501 2.5L21 26.5zM30 10.5L27.5 8 25 10.5l2.5 2.5zM25 50.5l2.499 2.5L30 50.5 27.499 48zM33.46 18.129h-3.918L27.42 16 25 18.433l2.118 2.128v3.811L25 26.501l2.118 2.128v3.811L25 34.568 27.42 37l2.423-2.432-2.119-2.128v-3.811l2.119-2.128-2.119-2.129v-3.811l1.816-1.824h3.92l2.117 2.128L38 18.433 35.577 16zM33 58.5l2.499 2.5L38 58.5 35.499 56zM33 50.5l2.498 2.5L38 50.5 35.498 48zM33.494 42.188h-3.889L27.499 40l-2.103 2.188h-3.888L19.406 40 17 42.5l2.406 2.5 2.102-2.188h3.89L27.499 45l2.105-2.188h3.89L35.595 45 38 42.5 35.595 40zM33 34.5l2.498 2.5L38 34.5 35.498 32z"/><path d="M33 26.5l2.498 2.5L38 26.5 35.498 24zM41 18.5l2.5 2.5 2.5-2.5-2.5-2.5zM46 34.432L43.501 32 41 34.432l2.188 2.128v3.811L41 42.499l2.188 2.129v3.812L41 50.567 43.501 53 46 50.567l-2.186-2.128v-3.81L46 42.499l-2.186-2.128V36.56zM41 26.5l2.5 2.5 2.5-2.5-2.5-2.5zM51.497 0L49 2.5 51.498 5 54 2.5 51.499 0zM49 18.5l2.498 2.5L54 18.5 51.498 16zM49 42.5l2.498 2.5L54 42.5 51.498 40zM49 34.5l2.498 2.5L54 34.5 51.498 32zM49 26.5l2.498 2.5L54 26.5 51.498 24z"/><path d="M62 10.432L59.598 8l-2.105 2.128h-3.89L51.499 8l-2.102 2.128h-3.89L43.403 8 41 10.432l2.403 2.432 2.102-2.128h3.892l2.102 2.128 2.104-2.128h3.892l1.801 1.823v3.812l-2.103 2.128 2.103 2.127v3.814l-2.103 2.127L59.598 29 62 26.567l-2.103-2.128v-3.81L62 18.499l-2.103-2.128v-3.81zM58 34.5l2.5 2.5 2.5-2.5-2.5-2.5zM66 18.5l2.499 2.5L71 18.501v-.002L68.499 16zM66 26.499L68.499 29 71 26.5v-.003L68.499 24z"/></g></svg>