<svg viewBox="0 0 38 35" xmlns="http://www.w3.org/2000/svg"><path d="M36.373 21.264L18.966 33.5 1.559 21.264c-.4787-.3405-.67659-.94022-.49033-1.486l1.994-5.9755 3.988-11.872c.038681-.096736.10026-.18336.17979-.25293.26843-.23715.67954-.23715.94797 0 .083982.078512.14586.17645.17979.28455l3.988 11.84h13.239l3.988-11.872c.038681-.096736.10026-.18336.17979-.25293.26843-.23715.67954-.23715.94797 0 .083982.078512.14586.17645.17979.28455l3.988 11.872 2.0757 5.9439c.16957.56316-.062974 1.1672-.57205 1.486z" stroke="#fff" stroke-width="2" fill="none" fill-rule="evenodd" stroke-linecap="round" stroke-linejoin="round"/></svg>