<?xml version="1.0" encoding="UTF-8"?>
<svg version="1.1" viewBox="0 0 89 31" xmlns="http://www.w3.org/2000/svg" xmlns:xlink="http://www.w3.org/1999/xlink">
  <title>Branding name</title>
  <desc>Typographical logotype of Heart</desc>
  <defs>
    <polygon id="b" points="0.50874 0.1257 18.621 0.1257 18.621 21.76 0.50874 21.76"/>
    <polygon id="a" points="0.58643 0.1257 16.752 0.1257 16.752 21.76 0.58643 21.76"/>
  </defs>
  <g fill="none" fill-rule="evenodd">
    <g transform="translate(-227 -50)">
      <g transform="translate(227 50)">
        <path d="m16.953 29.925c0 0.11712-0.02944 0.21504-0.08768 0.29504-0.05888 0.08064-0.15296 0.14976-0.28416 0.208s-0.3136 0.10176-0.5472 0.1312-0.5248 0.04416-0.87488 0.04416c-0.3648 0-0.66368-0.01472-0.89664-0.04416-0.2336-0.02944-0.416-0.07296-0.5472-0.1312s-0.22592-0.12736-0.28416-0.208c-0.05888-0.08-0.08768-0.17792-0.08768-0.29504v-11.528c0-1.1226-0.08704-2.0269-0.2624-2.7123-0.17472-0.68544-0.43072-1.2762-0.76544-1.7722-0.336-0.49536-0.76928-0.87488-1.3011-1.1373-0.53312-0.2624-1.1488-0.3936-1.849-0.3936-0.90432 0-1.8086 0.32064-2.7123 0.96256-0.90432 0.64192-1.8528 1.5821-2.8442 2.8218v13.759c0 0.11712-0.02944 0.21504-0.08704 0.29504-0.05888 0.08064-0.1536 0.14976-0.2848 0.208s-0.3136 0.10176-0.54656 0.1312c-0.2336 0.02944-0.53248 0.04416-0.89728 0.04416-0.34944 0-0.64128-0.01472-0.87488-0.04416s-0.4192-0.07296-0.55808-0.1312-0.23296-0.12736-0.28352-0.208c-0.05184-0.08-0.0768-0.17792-0.0768-0.29504v-29.225c0-0.11648 0.02496-0.21888 0.0768-0.30656 0.05056-0.08704 0.14464-0.16 0.28352-0.21824s0.32448-0.1024 0.55808-0.1312c0.2336-0.02944 0.52544-0.04416 0.87488-0.04416 0.3648 0 0.66368 0.01472 0.89728 0.04416 0.23296 0.0288 0.41536 0.07296 0.54656 0.1312s0.22592 0.1312 0.2848 0.21824c0.0576 0.08768 0.08704 0.19008 0.08704 0.30656v11.791c1.0355-1.0938 2.0781-1.9066 3.1283-2.439s2.1069-0.79872 3.1718-0.79872c1.3126 0 2.4173 0.22272 3.3139 0.66752 0.89728 0.4448 1.6224 1.0387 2.1766 1.7824 0.5536 0.74368 0.95232 1.6154 1.1923 2.6144 0.24128 0.99904 0.36096 2.2061 0.36096 3.6205v11.987z" fill="#fff"/>
        <g transform="translate(19.84 9.1275)">
          <mask id="d" fill="white">
            <use xlink:href="#b"/>
          </mask>
          <path d="m14.99 9.0287c0.04352-1.8957-0.37824-3.383-1.2659-4.4627-0.88704-1.079-2.2042-1.6186-3.9501-1.6186-0.89536 0-1.68 0.16768-2.3552 0.50304-0.6752 0.336-1.2403 0.78016-1.6954 1.3344-0.4544 0.55424-0.8064 1.2-1.056 1.936-0.2496 0.73664-0.38848 1.5059-0.41792 2.3078h10.74zm3.6314 1.072c0 0.56832-0.14336 0.97344-0.4288 1.2141s-0.6112 0.36096-0.97728 0.36096h-12.966c0 1.0938 0.11008 2.0781 0.32896 2.953 0.22016 0.87488 0.58624 1.6262 1.0995 2.2534 0.51264 0.62656 1.1795 1.1078 2 1.4432 0.82048 0.336 1.8246 0.50368 3.0118 0.50368 0.9376 0 1.7728-0.0768 2.5056-0.22976 0.7328-0.1536 1.3664-0.32448 1.9014-0.51456 0.53504-0.18944 0.97408-0.36096 1.3197-0.51392 0.34432-0.15296 0.60416-0.22976 0.78016-0.22976 0.1024 0 0.19392 0.0256 0.27456 0.0768s0.14272 0.128 0.18688 0.22976c0.04352 0.10176 0.0768 0.24448 0.09856 0.42624 0.02176 0.1824 0.03328 0.40512 0.03328 0.66752 0 0.18944-0.00768 0.35392-0.02176 0.49216-0.01536 0.13888-0.03264 0.2624-0.05504 0.37184-0.02112 0.10944-0.05824 0.208-0.1088 0.29504-0.05184 0.08768-0.11776 0.17152-0.19776 0.25152-0.08 0.08064-0.3168 0.21184-0.7104 0.39424s-0.90432 0.36096-1.5315 0.53568-1.353 0.33152-2.1766 0.4704c-0.82368 0.13824-1.7024 0.208-2.6355 0.208-1.6186 0-3.0374-0.22656-4.2547-0.6784-1.2179-0.45184-2.2419-1.1226-3.0733-2.0128-0.83136-0.88896-1.4592-2.0045-1.8816-3.3466-0.42304-1.3414-0.63424-2.9018-0.63424-4.681 0-1.6922 0.21888-3.2122 0.656-4.5613 0.43776-1.3485 1.0682-2.4934 1.8918-3.4342 0.82432-0.9408 1.8195-1.6627 2.9869-2.1658 1.1661-0.50304 2.4717-0.75456 3.9155-0.75456 1.5456 0 2.8614 0.24832 3.9482 0.74368 1.0861 0.496 1.9795 1.1629 2.6797 2.0013 0.70016 0.83904 1.2141 1.8234 1.5424 2.9536 0.32768 1.1302 0.49216 2.3373 0.49216 3.6198v0.65664z" fill="#fff" mask="url(#d)"/>
        </g>
        <g transform="translate(40.32 9.1275)">
          <mask id="c" fill="white">
            <use xlink:href="#a"/>
          </mask>
          <path d="m13.164 11.829h-3.0842c-0.992 0-1.8528 0.08384-2.5818 0.25152s-1.3344 0.41536-1.815 0.74368c-0.48128 0.32832-0.8352 0.72192-1.0611 1.1814-0.22656 0.45952-0.3392 0.98816-0.3392 1.5859 0 1.0208 0.32448 1.8342 0.97344 2.439 0.64832 0.60544 1.5565 0.90752 2.7232 0.90752 0.94784 0 1.8266-0.24064 2.6368-0.72192 0.80832-0.48064 1.6576-1.2173 2.5478-2.2093v-4.1779zm3.5872 8.9907c0 0.17472-0.05824 0.30592-0.17472 0.3936-0.11712 0.08768-0.27776 0.15296-0.48128 0.19712-0.20416 0.04352-0.50304 0.06528-0.89664 0.06528-0.37952 0-0.68224-0.02176-0.90752-0.06528-0.2272-0.04416-0.39104-0.10944-0.4928-0.19712-0.1024-0.08768-0.15296-0.21888-0.15296-0.3936v-1.9686c-0.8608 0.9184-1.8195 1.6333-2.8768 2.1434-1.0579 0.51072-2.1766 0.76608-3.3574 0.76608-1.0355 0-1.9725-0.13504-2.8115-0.40512-0.8384-0.26944-1.5526-0.65984-2.1434-1.1699-0.59008-0.51072-1.0502-1.1379-1.3779-1.8816-0.32832-0.74368-0.49216-1.5891-0.49216-2.5376 0-1.1078 0.22528-2.0704 0.67776-2.887 0.45184-0.81664 1.1008-1.495 1.9469-2.0346s1.8816-0.944 3.1066-1.2141c1.225-0.26944 2.6029-0.40448 4.1344-0.40448h2.7123v-1.5315c0-0.7584-0.08064-1.4291-0.24064-2.0122-0.16064-0.58368-0.4192-1.0682-0.77632-1.4547-0.35776-0.38656-0.82048-0.6784-1.3894-0.87552-0.56832-0.19648-1.2685-0.29504-2.0998-0.29504-0.89024 0-1.6883 0.1056-2.3955 0.31744-0.70784 0.2112-1.3267 0.4448-1.8586 0.69952-0.53312 0.25536-0.97792 0.48896-1.335 0.70016-0.35776 0.21184-0.62336 0.31744-0.79808 0.31744-0.11712 0-0.21888-0.02944-0.30656-0.08768s-0.16448-0.14592-0.22912-0.2624c-0.06656-0.11648-0.11392-0.26624-0.14272-0.44864-0.02944-0.1824-0.04352-0.38272-0.04352-0.6016 0-0.36416 0.02496-0.65216 0.07616-0.864 0.0512-0.2112 0.17472-0.41152 0.37248-0.6016 0.19584-0.18944 0.53568-0.41152 1.017-0.66688s1.0349-0.48896 1.6621-0.70016 1.3126-0.38656 2.0563-0.5248c0.74368-0.13888 1.4944-0.208 2.2534-0.208 1.4144 0 2.6176 0.16064 3.609 0.48128s1.7939 0.79104 2.4064 1.4106c0.61248 0.62016 1.0566 1.3894 1.3344 2.3078 0.27712 0.91904 0.41536 1.991 0.41536 3.216v13.278z" fill="#fff" mask="url(#c)"/>
        </g>
        <path d="m73.041 11.528c0 0.32064-0.00768 0.59072-0.02176 0.8096-0.01536 0.21824-0.04416 0.3904-0.08768 0.51392-0.04352 0.12416-0.09856 0.21888-0.16384 0.28416-0.06592 0.06592-0.15744 0.09856-0.27328 0.09856-0.11712 0-0.25984-0.03264-0.42688-0.09856-0.16768-0.06528-0.35776-0.1312-0.56832-0.19648-0.21184-0.06592-0.44864-0.128-0.71168-0.18624-0.2624-0.05824-0.54656-0.08768-0.85312-0.08768-0.3648 0-0.72128 0.0736-1.0714 0.21888-0.35008 0.14592-0.71872 0.38656-1.1053 0.72192-0.38592 0.33536-0.79104 0.78016-1.2134 1.3344-0.42368 0.55424-0.89024 1.2326-1.4003 2.0346v12.95c0 0.11712-0.02944 0.21568-0.08768 0.29568s-0.15296 0.14912-0.28416 0.20736-0.3136 0.10176-0.54656 0.1312c-0.23424 0.02944-0.53248 0.04416-0.89728 0.04416-0.35008 0-0.64192-0.01472-0.87488-0.04416-0.2336-0.02944-0.4192-0.07296-0.55808-0.1312s-0.23296-0.12736-0.28352-0.20736c-0.05184-0.08-0.07744-0.17856-0.07744-0.29568v-19.688c0-0.11648 0.0224-0.21504 0.06592-0.29504s0.1312-0.15296 0.2624-0.21888c0.1312-0.06528 0.29888-0.10944 0.50304-0.1312s0.47424-0.03264 0.8096-0.03264c0.32064 0 0.58688 0.01088 0.79872 0.03264 0.21056 0.02176 0.37504 0.06592 0.49216 0.1312 0.11584 0.06592 0.19968 0.13888 0.25152 0.21888 0.05056 0.08 0.07616 0.17856 0.07616 0.29504v2.8659c0.53952-0.78784 1.0464-1.4291 1.52-1.9251 0.4736-0.49536 0.92288-0.88576 1.3459-1.1699 0.4224-0.2848 0.8416-0.48128 1.2582-0.59072 0.41472-0.10944 0.83392-0.16448 1.257-0.16448 0.18944 0 0.40512 0.01088 0.64512 0.03328 0.24128 0.02176 0.4928 0.06208 0.7552 0.12032s0.4992 0.12352 0.71104 0.19648c0.21056 0.07296 0.36096 0.14592 0.448 0.21888 0.08768 0.07296 0.14592 0.14208 0.17536 0.208 0.0288 0.06528 0.0544 0.14976 0.0768 0.25152 0.02112 0.10176 0.03584 0.25152 0.04352 0.448 0.00704 0.19712 0.01088 0.46336 0.01088 0.79872" fill="#fff"/>
        <path d="m88.139 28.481c0 0.42304-0.02944 0.7584-0.08768 1.0061-0.05888 0.24832-0.14592 0.43072-0.2624 0.5472s-0.29184 0.22592-0.5248 0.32768c-0.2336 0.1024-0.49984 0.18624-0.79808 0.25216-0.29952 0.06528-0.61696 0.12032-0.95232 0.16384s-0.67072 0.06528-1.0061 0.06528c-1.0214 0-1.8963-0.13504-2.6246-0.40448-0.7296-0.26944-1.328-0.67776-1.7939-1.225-0.4672-0.54656-0.8064-1.2397-1.017-2.0781-0.21184-0.8384-0.31744-1.8266-0.31744-2.9638v-11.507h-2.7565c-0.21888 0-0.3936-0.11648-0.5248-0.35008-0.1312-0.23296-0.19712-0.61248-0.19712-1.1373 0-0.27712 0.01856-0.51008 0.0544-0.70016 0.03648-0.18944 0.08384-0.34624 0.14272-0.4704 0.05824-0.12352 0.1344-0.2112 0.22976-0.2624 0.09472-0.05056 0.20032-0.0768 0.3168-0.0768h2.7347v-4.681c0-0.10176 0.02496-0.19712 0.07616-0.28416 0.0512-0.08768 0.14592-0.16448 0.2848-0.22976 0.13824-0.06592 0.32384-0.11264 0.55744-0.14208s0.52544-0.04416 0.87552-0.04416c0.36416 0 0.66304 0.01472 0.89664 0.04416 0.23296 0.02944 0.41536 0.07616 0.5472 0.14208 0.1312 0.06528 0.22528 0.14208 0.28416 0.22976 0.05824 0.08704 0.08768 0.1824 0.08768 0.28416v4.681h5.0528c0.11648 0 0.21888 0.02624 0.30656 0.0768 0.08704 0.0512 0.1632 0.13888 0.22976 0.2624 0.06528 0.12416 0.11264 0.28096 0.14208 0.4704 0.0288 0.19008 0.04352 0.42304 0.04352 0.70016 0 0.5248-0.06592 0.90432-0.19712 1.1373-0.1312 0.2336-0.30592 0.35008-0.5248 0.35008h-5.0528v10.981c0 1.3562 0.19968 2.3814 0.6016 3.0739 0.40064 0.69248 1.1187 1.0387 2.1542 1.0387 0.33536 0 0.63424-0.03264 0.89728-0.09856 0.2624-0.06528 0.49536-0.1344 0.69952-0.20736s0.37888-0.14272 0.52544-0.208c0.14528-0.06592 0.27648-0.09856 0.3936-0.09856 0.07232 0 0.14272 0.01856 0.20736 0.0544 0.06656 0.03712 0.11712 0.10624 0.1536 0.208 0.03584 0.1024 0.06912 0.24064 0.09856 0.416 0.0288 0.17472 0.04352 0.3936 0.04352 0.656" fill="#fff"/>
      </g>
    </g>
  </g>
</svg>
