<?xml version="1.0" encoding="UTF-8"?>
<svg version="1.1" viewBox="0 0 71 61" xmlns="http://www.w3.org/2000/svg" xmlns:xlink="http://www.w3.org/1999/xlink">
  <title>Branding logo</title>
  <desc>Logo representing a heart</desc>
  <g fill="none" fill-rule="evenodd">
    <g transform="translate(-134 -35)" fill="#fff">
      <g transform="translate(134 35)">
        <polygon points="0 18.445 2.1882 20.585 2.1882 24.415 0 26.554 2.5006 29 5 26.554 2.8131 24.415 2.8131 20.585 5 18.445 2.5006 16"/>
        <polygon points="12.54 10.812 16.458 10.812 18.58 13 21 10.5 18.58 8 16.458 10.188 12.54 10.188 10.42 8 8 10.5 10.42 13"/>
        <polygon points="8 18.5 10.499 21 13 18.5 10.499 16"/>
        <polygon points="8 34.5 10.499 37 13 34.5 10.499 32"/>
        <polygon points="8 26.5 10.499 29 13 26.5 10.499 24"/>
        <polygon points="18.501 0 16 2.5 18.502 5 21 2.5 18.503 0"/>
        <polygon points="18.501 16 16 18.5 18.501 21 21 18.5"/>
        <polygon points="16 34.5 18.501 37 21 34.5 18.501 32"/>
        <polygon points="18.501 24 16 26.5 18.501 29 21 26.5"/>
        <polygon points="30 10.5 27.5 8 25 10.5 27.5 13"/>
        <polygon points="25 50.5 27.499 53 30 50.5 27.499 48"/>
        <polygon points="33.46 18.129 29.542 18.129 27.42 16 25 18.433 27.118 20.561 27.118 24.372 25 26.501 27.118 28.629 27.118 32.44 25 34.568 27.42 37 29.843 34.568 27.724 32.44 27.724 28.629 29.843 26.501 27.724 24.372 27.724 20.561 29.54 18.737 33.46 18.737 35.577 20.865 38 18.433 35.577 16"/>
        <polygon points="33 58.5 35.499 61 38 58.5 35.499 56"/>
        <polygon points="33 50.5 35.498 53 38 50.5 35.498 48"/>
        <polygon points="33.494 42.188 29.605 42.188 27.499 40 25.396 42.188 21.508 42.188 19.406 40 17 42.5 19.406 45 21.508 42.812 25.398 42.812 27.499 45 29.604 42.812 33.494 42.812 35.595 45 38 42.5 35.595 40"/>
        <polygon points="33 34.5 35.498 37 38 34.5 35.498 32"/>
        <polygon points="33 26.5 35.498 29 38 26.5 35.498 24"/>
        <polygon points="41 18.5 43.5 21 46 18.5 43.5 16"/>
        <polygon points="46 34.432 43.501 32 41 34.432 43.188 36.56 43.188 40.371 41 42.499 43.188 44.628 43.188 48.44 41 50.567 43.501 53 46 50.567 43.814 48.439 43.814 44.629 46 42.499 43.814 40.371 43.814 36.56"/>
        <polygon points="41 26.5 43.5 29 46 26.5 43.5 24"/>
        <polygon points="51.497 0 49 2.5 51.498 5 54 2.5 51.499 0"/>
        <polygon points="49 18.5 51.498 21 54 18.5 51.498 16"/>
        <polygon points="49 42.5 51.498 45 54 42.5 51.498 40"/>
        <polygon points="49 34.5 51.498 37 54 34.5 51.498 32"/>
        <polygon points="49 26.5 51.498 29 54 26.5 51.498 24"/>
        <polygon points="62 10.432 59.598 8 57.493 10.128 53.603 10.128 51.499 8 49.397 10.128 45.507 10.128 43.403 8 41 10.432 43.403 12.864 45.505 10.736 49.397 10.736 51.499 12.864 53.603 10.736 57.495 10.736 59.296 12.559 59.296 16.371 57.193 18.499 59.296 20.626 59.296 24.44 57.193 26.567 59.598 29 62 26.567 59.897 24.439 59.897 20.629 62 18.499 59.897 16.371 59.897 12.561"/>
        <polygon points="58 34.5 60.5 37 63 34.5 60.5 32"/>
        <polygon points="66 18.5 68.499 21 71 18.501 71 18.499 68.499 16"/>
        <polygon points="66 26.499 68.499 29 71 26.5 71 26.497 68.499 24"/>
      </g>
    </g>
  </g>
</svg>
