<svg viewBox="0 0 70 63" xmlns="http://www.w3.org/2000/svg"><defs><linearGradient id="a" x1="32.204%" x2="109.75%" y1="21.191%" y2="126.42%"><stop stop-color="#062D5F" offset="0"/><stop stop-color="#42C8AD" offset="1"/></linearGradient><linearGradient id="b" x1="22.721%" x2="141.58%" y1="21.191%" y2="126.42%"><stop stop-color="#062D5F" offset="0"/><stop stop-color="#42C8AD" offset="1"/></linearGradient></defs><g fill-rule="nonzero" fill="none"><path d="M27.191 43.244c2.3976-2.4071 6.2986-2.4071 8.6962 0 2.3976 2.4071 2.3976 6.3235 0 8.7306l-1.3857 1.3912 8.6008 8.6343 8.6008-8.6343 1.1943 1.1991c2.3976 2.4071 6.2986 2.4071 8.6962 0 2.3976-2.4071 2.3976-6.3235 0-8.7306l-1.1943-1.1991 8.6008-8.6348-8.6008-8.6348 1.3857-1.3912c2.3976-2.4071 2.3976-6.3235 0-8.7306-2.3976-2.4071-6.2986-2.4071-8.6962 0l-1.3857 1.3912-8.6008-8.6348-8.6008 8.6348 1.1949 1.1996c2.3976 2.4071 2.3976 6.3235 0 8.7301-2.3976 2.4071-6.2986 2.4071-8.6962 0l.19088 14.679z" fill="url(#a)" transform="translate(1 1)"/><path d="M12.31 43.028c0-3.4107 2.7916-6.1855 6.2231-6.1855 3.432 0 6.2236 2.7747 6.2236 6.1855v1.9717h12.31v-12.236h1.7093c3.432 0 6.2236-2.7747 6.2236-6.186 0-3.4107-2.7916-6.1855-6.2236-6.1855h-1.7093V8.1562h-12.31V6.1851c0-3.4107-2.7916-6.186-6.2236-6.186-3.4315 0-6.2231 2.7753-6.2231 6.186v1.9711H0v12.236h1.7099c3.4315 0 6.2231 2.7747 6.2231 6.1855 0 3.4113-2.7916 6.186-6.2231 6.186H0v12.236h12.31V43.028z" fill="url(#b)" stroke="#fff" transform="translate(1 1)"/></g></svg>