<svg viewBox="0 0 47 44" xmlns="http://www.w3.org/2000/svg"><defs><linearGradient id="a" x1="22.721%" x2="141.58%" y1="24.752%" y2="116.98%"><stop stop-color="#062D5F" offset="0"/><stop stop-color="#42C8AD" offset="1"/></linearGradient></defs><path d="M160.5 0C147.542 0 137 10.185 137 22.701c0 9.3387 6.0591 17.843 15.075 21.161 2.6516 1.0187 2.2129-3.5578 6.3293-14.495.20954-.6453-.078333-1.3423-.68933-1.6659-1.9055-1.0149-3.0902-2.9316-3.0902-4.9997 0-3.1308 2.634-5.6756 5.875-5.6756 3.2391 0 5.875 2.5448 5.875 5.6756 0 2.068-1.1828 3.9848-3.0902 5.0035-.611.32361-.90083 1.0206-.68933 1.6659 4.2065 12.502 4.1712 15.3 6.3313 14.493 9.0162-3.3184 15.073-11.824 15.073-21.163 0-12.517-10.542-22.701-23.5-22.701z" transform="translate(-137)" fill="url(#a)" fill-rule="nonzero"/></svg>