<svg fill="#fff" fill-rule="evenodd" stroke="#000" stroke-linecap="round" stroke-linejoin="round" viewBox="0 0 111 39" xmlns="http://www.w3.org/2000/svg" xmlns:xlink="http://www.w3.org/1999/xlink"><use x=".5" y=".5" xlink:href="#a"/><symbol id="a" overflow="visible"><g fill-rule="nonzero" stroke="none"><path d="M9.61 36.154l-9.24-16c-.494-.855-.494-1.9 0-2.765L9.61 1.382A2.77 2.77 0 0112.011 0h18.493a2.76 2.76 0 012.38 1.382l9.25 16.008c.494.855.494 1.9 0 2.765l-9.26 16a2.77 2.77 0 01-2.4 1.382h-18.5c-.984-.003-1.892-.53-2.385-1.382z" fill="#4386fa"/><path d="M27.015 13.588s2.57 6.162-.933 9.656-9.88 1.257-9.88 1.257l12.973 13.023h1.317c.986-.002 1.897-.528 2.4-1.382L39 25.548z" fill="#000" opacity=".1"/><path d="M30.05 26.21l-2.84-2.827a.44.44 0 00-.104-.08 7.72 7.72 0 00-11.587-10.16 7.72 7.72 0 00-.288 10.571 7.73 7.73 0 0010.533.941c.02.036.046.07.075.1l2.84 2.84a.44.44 0 00.314.129.45.45 0 00.314-.129l.753-.753a.44.44 0 00.129-.314.45.45 0 00-.129-.314zm-9.047-1.836a5.81 5.81 0 01-5.366-3.586c-.9-2.17-.402-4.67 1.26-6.33a5.81 5.81 0 019.723 5.61 5.81 5.81 0 01-5.615 4.306zm-3.712-6.12v2.4c.37.653.905 1.196 1.552 1.577v-3.982zm2.9-2v6.487c.513.094 1.04.094 1.552 0v-6.486zm4.492 4.387v-1.42H23.13v2.994c.646-.38 1.18-.92 1.552-1.572z"/><path d="M64.6 8.31h-7v2.082h4.982c-.248 2.924-2.68 4.17-4.972 4.17a5.48 5.48 0 01-3.89-1.583c-1.035-1.023-1.62-2.417-1.624-3.872v-.094a5.49 5.49 0 011.578-3.945 5.48 5.48 0 013.922-1.635 5.41 5.41 0 013.758 1.525l1.46-1.503a7.42 7.42 0 00-5.283-2.082 7.66 7.66 0 00-6.788 11.615 7.66 7.66 0 006.897 3.694c4.084-.008 7.1-2.815 7.1-6.968a6.24 6.24 0 00-.128-1.383zm5.767-1.503a4.86 4.86 0 00-4.96 4.78v.105c-.016 2.73 2.185 4.956 4.915 4.972s4.956-2.185 4.972-4.915c0-3.26-2.56-4.942-4.917-4.942zm.027 1.94c1.417 0 2.75 1.128 2.75 3.006s-1.338 2.984-2.765 2.984c-1.57 0-2.8-1.25-2.8-3.006s1.2-2.977 2.793-2.977zm10.712-1.94a4.86 4.86 0 00-4.945 4.78v.105c-.016 2.73 2.185 4.956 4.915 4.972s4.956-2.185 4.972-4.915c0-3.25-2.563-4.937-4.937-4.937zm.03 1.94c1.417 0 2.75 1.128 2.75 3.006s-1.338 2.984-2.765 2.984c-1.57 0-2.8-1.25-2.8-3.006s1.2-2.977 2.792-2.977zm10.52-1.94c-2.63 0-4.723 2.314-4.723 4.92a4.86 4.86 0 004.678 4.927 3.25 3.25 0 002.698-1.203v.973c0 1.7-1.03 2.72-2.585 2.72a2.74 2.74 0 01-2.518-1.75l-1.88.782c.667 1.417 2.007 2.912 4.4 2.912 2.63 0 4.64-1.657 4.64-5.13V7.11H94.3v.827a3.48 3.48 0 00-2.653-1.128zm.192 1.92c1.296 0 2.63 1.108 2.63 3.006s-1.33 2.965-2.66 2.965c-1.417 0-2.72-1.128-2.72-2.96 0-1.88 1.364-3.006 2.755-3.006zm13.7-1.92c-2.495 0-4.584 1.984-4.584 4.915a4.76 4.76 0 004.828 4.93 4.99 4.99 0 004.133-2.16l-1.702-1.128c-.5.85-1.416 1.365-2.4 1.353a2.53 2.53 0 01-2.412-1.503L110 10.48l-.333-.8c-.65-1.708-2.276-2.846-4.103-2.87zm.087 1.88c.76-.032 1.47.378 1.823 1.052l-4.417 1.85c-.192-1.428 1.16-2.894 2.585-2.894zM97.8 16.362h2.167V1.86H97.8zm-47.698 16.7v-9.507h3.442a2.73 2.73 0 011.939.752c.532.465.83 1.142.812 1.85a2.01 2.01 0 01-1.289 1.98v.053c.467.146.877.437 1.168.83a2.2 2.2 0 01.439 1.35c.018.737-.286 1.445-.833 1.94a2.9 2.9 0 01-2.034.752h-3.634zm1.22-8.335v2.917h2.217a1.47 1.47 0 001.089-.439c.562-.54.584-1.43.05-1.995l-.038-.038c-.272-.288-.653-.448-1.048-.44H51.34zm0 4.055v3.12h2.46a1.57 1.57 0 001.582-1.55 1.49 1.49 0 00-.467-1.089 1.59 1.59 0 00-1.168-.467h-2.4zm8.043-4.467a.86.86 0 01-1.656.322.86.86 0 011.405-.934c.165.16.256.382.252.613zm-.252 2.254v6.5H57.89v-6.5zm4.4 9.582a3.52 3.52 0 01-1.022-.14 3.31 3.31 0 01-.872-.376 2.97 2.97 0 01-.677-.613 2.52 2.52 0 01-.424-.752l1.167-.48a1.82 1.82 0 00.692.917 1.94 1.94 0 001.128.346 2.02 2.02 0 001.556-.598 2.32 2.32 0 00.56-1.646v-.642h-.053a2.4 2.4 0 01-.936.815 2.81 2.81 0 01-1.28.3c-.842.004-1.643-.36-2.194-.996a3.61 3.61 0 01-.906-2.465 3.56 3.56 0 01.902-2.459 2.86 2.86 0 012.194-1.01 2.8 2.8 0 011.281.301 2.4 2.4 0 01.936.815h.053v-.913h1.168v6.23a3.33 3.33 0 01-.89 2.458 3.26 3.26 0 01-2.371.894zm.042-3.987a1.88 1.88 0 001.473-.65 2.7 2.7 0 000-3.382c-.365-.433-.907-.677-1.473-.665-.565-.008-1.105.236-1.473.665a2.4 2.4 0 00-.598 1.694 2.4 2.4 0 00.598 1.687c.37.426.908.668 1.473.66zm15.913.903l-.962.623-.653-.97a5.15 5.15 0 01-2.284.545 4.7 4.7 0 01-3.48-1.44c-1.88-1.982-1.88-5.087 0-7.068a4.91 4.91 0 016.963 0 4.8 4.8 0 011.409 3.52 5.09 5.09 0 01-.432 2.082 4.98 4.98 0 01-1.217 1.699zm-3.892-.97a3.6 3.6 0 001.601-.376l-1.118-1.666.962-.65 1.1 1.66a3.66 3.66 0 001.089-2.762 3.67 3.67 0 00-1.048-2.72 3.45 3.45 0 00-2.589-1.074 3.49 3.49 0 00-2.604 1.074c-1.38 1.55-1.38 3.9 0 5.44a3.49 3.49 0 002.615 1.082zm11.835.963h-1.17v-.9h-.053a2.17 2.17 0 01-.857.8 2.46 2.46 0 01-1.203.319 2.41 2.41 0 01-1.841-.684c-.458-.54-.688-1.24-.638-1.946V26.56h1.22v4q.042 1.6 1.6 1.6a1.54 1.54 0 001.217-.593 2.14 2.14 0 00.493-1.417v-3.596h1.22v6.5zm4.344.214a3.12 3.12 0 01-2.364-.984 3.48 3.48 0 01-.928-2.484 3.54 3.54 0 01.908-2.475 3.25 3.25 0 014.618-.053c.616.732.924 1.676.857 2.63v.132H89.73a2.12 2.12 0 00.638 1.54 2.06 2.06 0 003.295-.583l1.1.53a3.27 3.27 0 01-1.214 1.29 3.38 3.38 0 01-1.766.458zm-1.954-4.25h3.73a1.63 1.63 0 00-.553-1.128c-.373-.3-.85-.468-1.334-.443a1.77 1.77 0 00-1.188.424c-.34.297-.57.7-.658 1.143zm7.376 4.036h-1.22v-6.5h1.168v1.063h.053a1.8 1.8 0 01.752-.883 2.12 2.12 0 011.128-.375 2.29 2.29 0 01.902.162l-.375 1.184a1.84 1.84 0 00-.717-.094c-.464.002-.903.206-1.203.56a1.88 1.88 0 00-.511 1.3v3.6zm9.553-6.5l-4.07 9.395h-1.263l1.503-3.28-2.667-6.113h1.33l1.94 4.678h.027l1.88-4.678h1.32z" fill="#767677"/></g></symbol></svg>