<svg width="456" height="130.95" xmlns="http://www.w3.org/2000/svg"><defs><linearGradient x1="0" y1="0" x2="1" y2="0" gradientUnits="userSpaceOnUse" gradientTransform="scale(2090.63 -2090.63) rotate(47.19 2.09 1.9)" spreadMethod="pad" id="b"><stop style="stop-opacity:1;stop-color:#b2de5c" offset="0"/><stop style="stop-opacity:1;stop-color:#6aae30" offset="1"/></linearGradient><linearGradient x1="0" y1="0" x2="1" y2="0" gradientUnits="userSpaceOnUse" gradientTransform="scale(2090.63 -2090.63) rotate(47.19 2.09 1.9)" spreadMethod="pad" id="d"><stop style="stop-opacity:1;stop-color:#e0f2b9" offset="0"/><stop style="stop-opacity:1;stop-color:#c2da9b" offset="1"/></linearGradient><linearGradient x1="0" y1="0" x2="1" y2="0" gradientUnits="userSpaceOnUse" gradientTransform="scale(-1077.6 1077.6) rotate(90 -.82 -.21)" spreadMethod="pad" id="f"><stop style="stop-opacity:1;stop-color:#2c2c2f" offset="0"/><stop style="stop-opacity:1;stop-color:#babcbe" offset=".86"/><stop style="stop-opacity:1;stop-color:#babcbe" offset="1"/></linearGradient><linearGradient x1="0" y1="0" x2="1" y2="0" gradientUnits="userSpaceOnUse" gradientTransform="scale(-1074.35 1074.35) rotate(90 -1.13 -.52)" spreadMethod="pad" id="h"><stop style="stop-opacity:1;stop-color:#2c2c2f" offset="0"/><stop style="stop-opacity:1;stop-color:#babcbe" offset=".86"/><stop style="stop-opacity:1;stop-color:#babcbe" offset="1"/></linearGradient><linearGradient x1="0" y1="0" x2="1" y2="0" gradientUnits="userSpaceOnUse" gradientTransform="scale(-1074.59 1074.59) rotate(90 -1.4 -.78)" spreadMethod="pad" id="j"><stop style="stop-opacity:1;stop-color:#2c2c2f" offset="0"/><stop style="stop-opacity:1;stop-color:#babcbe" offset=".86"/><stop style="stop-opacity:1;stop-color:#babcbe" offset="1"/></linearGradient><linearGradient x1="0" y1="0" x2="1" y2="0" gradientUnits="userSpaceOnUse" gradientTransform="scale(-1074.59 1074.59) rotate(90 -1.72 -1.1)" spreadMethod="pad" id="l"><stop style="stop-opacity:1;stop-color:#2c2c2f" offset="0"/><stop style="stop-opacity:1;stop-color:#babcbe" offset=".86"/><stop style="stop-opacity:1;stop-color:#babcbe" offset="1"/></linearGradient><linearGradient x1="0" y1="0" x2="1" y2="0" gradientUnits="userSpaceOnUse" gradientTransform="scale(-1074.35 1074.35) rotate(90 -2.06 -1.44)" spreadMethod="pad" id="n"><stop style="stop-opacity:1;stop-color:#2c2c2f" offset="0"/><stop style="stop-opacity:1;stop-color:#babcbe" offset=".86"/><stop style="stop-opacity:1;stop-color:#babcbe" offset="1"/></linearGradient><linearGradient x1="0" y1="0" x2="1" y2="0" gradientUnits="userSpaceOnUse" gradientTransform="scale(-1040.93 1040.93) rotate(90 -3.22 -2.59)" spreadMethod="pad" id="p"><stop style="stop-opacity:1;stop-color:#2c2c2f" offset="0"/><stop style="stop-opacity:1;stop-color:#babcbe" offset=".86"/><stop style="stop-opacity:1;stop-color:#babcbe" offset="1"/></linearGradient><linearGradient x1="0" y1="0" x2="1" y2="0" gradientUnits="userSpaceOnUse" gradientTransform="scale(-1077.56 1077.56) rotate(90 -3.3 -2.69)" spreadMethod="pad" id="r"><stop style="stop-opacity:1;stop-color:#2c2c2f" offset="0"/><stop style="stop-opacity:1;stop-color:#babcbe" offset=".86"/><stop style="stop-opacity:1;stop-color:#babcbe" offset="1"/></linearGradient><linearGradient x1="0" y1="0" x2="1" y2="0" gradientUnits="userSpaceOnUse" gradientTransform="scale(-1074.36 1074.36) rotate(90 -3.54 -2.93)" spreadMethod="pad" id="t"><stop style="stop-opacity:1;stop-color:#2c2c2f" offset="0"/><stop style="stop-opacity:1;stop-color:#babcbe" offset=".86"/><stop style="stop-opacity:1;stop-color:#babcbe" offset="1"/></linearGradient><linearGradient x1="0" y1="0" x2="1" y2="0" gradientUnits="userSpaceOnUse" gradientTransform="scale(2090.63 -2090.63) rotate(47.19 2.09 1.9)" spreadMethod="pad" id="v"><stop style="stop-opacity:1;stop-color:#7dc047" offset="0"/><stop style="stop-opacity:1;stop-color:#4e9d38" offset="1"/></linearGradient><linearGradient x1="0" y1="0" x2="1" y2="0" gradientUnits="userSpaceOnUse" gradientTransform="scale(2090.63 -2090.63) rotate(47.19 2.09 1.9)" spreadMethod="pad" id="x"><stop style="stop-opacity:1;stop-color:#9ecb6b" offset="0"/><stop style="stop-opacity:1;stop-color:#8abb61" offset="1"/></linearGradient><linearGradient x1="0" y1="0" x2="1" y2="0" gradientUnits="userSpaceOnUse" gradientTransform="scale(2090.63 -2090.63) rotate(47.19 2.09 1.9)" spreadMethod="pad" id="z"><stop style="stop-opacity:1;stop-color:#9ecb6b" offset="0"/><stop style="stop-opacity:1;stop-color:#8abb61" offset="1"/></linearGradient><linearGradient x1="0" y1="0" x2="1" y2="0" gradientUnits="userSpaceOnUse" gradientTransform="scale(-3257.02 3257.02) rotate(90 -.72 -.83)" spreadMethod="pad" id="B"><stop style="stop-opacity:1;stop-color:#fff" offset="0"/><stop style="stop-opacity:1;stop-color:#231f20" offset="1"/></linearGradient><clipPath clipPathUnits="userSpaceOnUse" id="a"><path d="M4354.2 416.71H5715v1473.66H4354.2Z"/></clipPath><clipPath clipPathUnits="userSpaceOnUse" id="c"><path d="M4354.2 416.71h-19.98v1493.64H5715v-19.98H4354.2V416.71"/></clipPath><clipPath clipPathUnits="userSpaceOnUse" id="e"><path d="M1113.29 1327.65c-23.92 0-43.57-5.36-58.41-15.94-14.79-10.58-26.5-27.8-34.79-51.16-8.14-22.83-13.55-53.57-16.01-91.33-2.52-37.32-3.78-83.61-3.78-137.59 0-28.1 1.26-55.04 3.78-80 2.49-25.23 7.63-48.12 15.31-68.04 7.77-20.2 18.83-36.53 32.9-48.49 14.37-12.26 33.36-18.47 56.51-18.47 23.06 0 42.51 6.19 57.86 18.34 15.08 11.97 27.17 28.51 35.99 49.21 8.61 20.3 14.79 45.22 18.36 74.1 3.52 28.76 5.29 60.5 5.29 94.37 0 98.09-7.93 168.82-23.57 210.26-16.24 42.96-46.35 64.74-89.44 64.74zm-30-940.5c-86.45 0-153.78 18.56-200.14 55.17-44.88 35.4-68.17 86.13-69.32 150.82h188.09c1.31-25.26 12.56-45.62 33.47-60.58a137.47 137.47 0 0 1 33.51-17.13 116.61 116.61 0 0 1 38.4-6.29c43.61 0 74.82 14.41 92.71 42.84 17.46 27.72 26.29 62.43 26.29 103.15v111.5h-10.61l-1.5-2.14c-20.46-29.23-45.93-52.97-75.68-70.55-29.59-17.45-60.8-26.3-92.72-26.3-79.86 0-140.78 30.79-181.08 91.52-40.75 61.34-61.4 166.15-61.4 311.49 0 46.65 2.76 94.9 8.2 143.43 5.42 48.24 16.88 92.43 34.13 131.29 17.02 38.49 42.21 70.37 74.9 94.76 32.47 24.23 76.64 36.5 131.24 36.5 28.02 0 57.52-7.89 87.74-23.43 29.86-15.43 54.84-43.94 74.25-84.72l1.35-2.85h11.18v90.01h187.99V694.12c0-102.14-25.51-179.68-75.79-230.46-50.31-50.78-136.19-76.52-255.21-76.52z"/></clipPath><clipPath clipPathUnits="userSpaceOnUse" id="g"><path d="M1766.79 658.65H1569.8v796.99h187.99v-108h11l1.41 2.63c20.57 38.19 45.84 69.21 75.19 92.18 28.96 22.67 64.78 34.17 106.4 34.17a233.22 233.22 0 0 0 32.49-2.26v-188.28c-9.31.78-18.38 1.38-27 1.78a648.9 648.9 0 0 1-32.48.79c-18.34 0-36.97-2.59-55.33-7.68a150.19 150.19 0 0 1-51.21-25.61c-15.57-11.94-28.17-27.69-37.46-46.79-9.3-19.11-14.01-42.8-14.01-70.43z"/></clipPath><clipPath clipPathUnits="userSpaceOnUse" id="i"><path d="M2347.78 1345.65c-21.94 0-40.3-5.12-54.63-15.17-14.13-9.97-25.49-23.18-33.8-39.3-8.21-15.88-14.16-33.77-17.73-53.14a319.57 319.57 0 0 1-5.35-57.91V1143.64h221.66l-.15 5.17c-.98 31.01-3.02 58.66-6.03 82.21-3.07 23.91-8.5 44.58-16.16 61.42-7.87 17.36-19.12 30.7-33.38 39.68-14.27 8.98-32.57 13.53-54.43 13.53zm-1.49-703.5c-73.71 0-131.9 12.36-172.94 36.8-40.96 24.32-71.59 56.93-91.06 96.88-19.65 40.23-31.86 86.06-36.27 136.25a1739.83 1739.83 0 0 0-6.71 152.56c0 53.48 3.74 105.73 11.17 155.27 7.38 49.16 22.32 93.48 44.41 131.73 21.89 37.99 53.81 68.67 94.81 91.13 41.04 22.47 96.75 33.84 165.59 33.84 58.91 0 107.86-9.63 145.49-28.67 37.47-19.01 67.34-46.15 88.76-80.67 21.51-34.78 36.43-77.56 44.3-127.17 7.93-50.11 11.95-106.61 11.95-167.95v-41.5h-409.52v-69.51c0-24.2 1.79-47.92 5.32-70.53 3.56-22.9 9.49-43.53 17.65-61.3 8.27-18.12 19.33-32.84 32.9-43.82 13.85-11.17 31.05-16.85 51.14-16.85 36.67 0 63.83 13.4 80.72 39.82 15.88 24.76 27.03 62.33 33.2 111.68h176.34c-4.62-89.81-29.3-159.12-73.39-206.07-44.81-47.73-116.76-71.93-213.86-71.93z"/></clipPath><clipPath clipPathUnits="userSpaceOnUse" id="k"><path d="M3042.28 1345.65c-21.94 0-40.3-5.12-54.63-15.17-14.13-9.97-25.5-23.18-33.81-39.3-8.2-15.88-14.15-33.77-17.73-53.14a320.46 320.46 0 0 1-5.34-57.91V1143.64H3152.45l-.17 5.17c-1.03 31.23-3.05 58.9-6.03 82.21-3.08 23.93-8.51 44.62-16.18 61.42-7.85 17.34-19.08 30.7-33.37 39.68-14.26 8.98-32.56 13.53-54.42 13.53zm-1.51-703.5c-73.71 0-131.9 12.36-172.92 36.8-40.98 24.34-71.61 56.93-91.07 96.88-19.65 40.18-31.83 86.02-36.27 136.25a1741.75 1741.75 0 0 0-6.73 152.56c0 53.39 3.77 105.63 11.2 155.27 7.38 49.15 22.31 93.46 44.38 131.73 21.92 37.99 53.83 68.67 94.81 91.13 41.06 22.47 96.77 33.84 165.6 33.84 58.92 0 107.88-9.63 145.51-28.67 37.46-19.01 67.34-46.15 88.75-80.67 21.52-34.78 36.44-77.56 44.3-127.17 7.93-50.02 11.93-106.52 11.93-167.95v-41.5h-409.49v-69.51c0-24.2 1.78-47.92 5.32-70.53 3.55-22.9 9.49-43.53 17.65-61.3 8.27-18.12 19.33-32.84 32.9-43.82 13.84-11.17 31.05-16.85 51.14-16.85 36.67 0 63.83 13.4 80.72 39.82 15.88 24.76 27.03 62.33 33.19 111.68h176.35c-4.63-89.81-29.3-159.12-73.4-206.07-44.8-47.73-116.75-71.93-213.87-71.93z"/></clipPath><clipPath clipPathUnits="userSpaceOnUse" id="m"><path d="M4060.27 658.65h-196.98v551.5c0 43.6-7.28 73.34-22.22 90.97-14.93 17.57-38.9 26.52-71.29 26.52-75.99 0-114.53-46.61-114.53-138.51V658.65h-196.96v796.99h187.98v-94.5h10.96l1.41 2.58c21.41 38.94 49.49 67.78 83.46 85.76 34.11 18.02 73.72 27.14 117.68 27.14 64.31 0 114.35-17.66 148.7-52.49 34.36-34.89 51.79-92.75 51.79-171.98z"/></clipPath><clipPath clipPathUnits="userSpaceOnUse" id="o"><path d="M6143.1 658.65h-187.99v223.97h187.99Z"/></clipPath><clipPath clipPathUnits="userSpaceOnUse" id="q"><path d="M6545.07 658.64h-197v665.99h-105v131.02h105v96.49c0 35.2 4.93 65.36 14.64 89.66 9.64 24.08 23.53 43.59 41.25 57.96 17.77 14.41 40.06 24.93 66.27 31.26 26.6 6.4 56.5 9.63 88.85 9.63 35.07 0 70.71-1.38 106-4.12V1599.9c-4.48.49-9.85.73-16.01.73h-19.51c-30.46 0-51.63-5.28-64.68-16.14-13.15-10.98-19.81-28.92-19.81-53.34v-75.5h120.01v-131.02h-120.01v-4.99z"/></clipPath><clipPath clipPathUnits="userSpaceOnUse" id="s"><path d="M6944.07 658.65h-196.99v797h187.99v-108.01h10.98l1.42 2.63c20.57 38.2 45.86 69.22 75.17 92.18 28.99 22.69 64.8 34.18 106.42 34.18 5.82 0 11.83-.23 18.37-.72 4.81-.38 9.55-.9 14.13-1.56v-188.26c-9.6.79-18.47 1.38-27 1.79-10.52.51-21.46.77-32.5.77-18.3 0-36.89-2.58-55.33-7.7a150.64 150.64 0 0 1-51.2-25.59c-15.54-11.93-28.16-27.66-37.45-46.79-9.31-19.09-14.01-42.79-14.01-70.43z"/></clipPath><clipPath clipPathUnits="userSpaceOnUse" id="u"><path d="M5735.07 396.73H4354.2v19.98H5715v1473.66h20.07V396.73"/></clipPath><clipPath clipPathUnits="userSpaceOnUse" id="w"><path d="M4334.22 396.73h19.98v19.98h-19.98Z"/></clipPath><clipPath clipPathUnits="userSpaceOnUse" id="y"><path d="M5715 1890.37h20.07v19.98H5715Z"/></clipPath><clipPath clipPathUnits="userSpaceOnUse" id="A"><path d="M5124.83 653.65h20v873.99h-20zm-553.49 0h20v1050.99h196v20h-216zm319.49 1070.99v-177h20v157h664v20z"/></clipPath></defs><path d="M0 127.79h342V226H0Z" style="fill:#fff;fill-opacity:0;fill-rule:nonzero;stroke:none;stroke-width:.0434564" fill="none" transform="matrix(1.33333 0 0 -1.33333 0 301.33)"/><g clip-path="url(#a)" transform="matrix(.05794 0 0 -.05794 0 130.95)"><path d="M4354.2 416.71H5715v1473.66H4354.2Z" style="fill:url(#b);fill-opacity:1;fill-rule:nonzero;stroke:none"/></g><path d="M249.23 210.8h-60.88v-65.77h60.88v65.78m.43.43V144.6h-61.74v66.64h61.74" style="fill:#6aae30;fill-opacity:1;fill-rule:nonzero;stroke:none;stroke-width:.0434564" transform="matrix(1.33333 0 0 -1.33333 0 301.33)"/><g clip-path="url(#c)" transform="matrix(.05794 0 0 -.05794 0 130.95)"><path d="M4354.2 416.71h-19.98v1493.64H5715v-19.98H4354.2V416.71" style="fill:url(#d);fill-opacity:1;fill-rule:nonzero;stroke:none"/></g><path d="M187.92 144.6v66.64h61.74-1.3v-.43h-60.01V145.9h-.43v-1.3" style="fill:#c2da9b;fill-opacity:1;fill-rule:nonzero;stroke:none;stroke-width:.0434564" transform="matrix(1.33333 0 0 -1.33333 0 301.33)"/><g clip-path="url(#e)" transform="matrix(.05794 0 0 -.05794 0 130.95)"><path d="M1113.29 1327.65c-23.92 0-43.57-5.36-58.41-15.94-14.79-10.58-26.5-27.8-34.79-51.16-8.14-22.83-13.55-53.57-16.01-91.33-2.52-37.32-3.78-83.61-3.78-137.59 0-28.1 1.26-55.04 3.78-80 2.49-25.23 7.63-48.12 15.31-68.04 7.77-20.2 18.83-36.53 32.9-48.49 14.37-12.26 33.36-18.47 56.51-18.47 23.06 0 42.51 6.19 57.86 18.34 15.08 11.97 27.17 28.51 35.99 49.21 8.61 20.3 14.79 45.22 18.36 74.1 3.52 28.76 5.29 60.5 5.29 94.37 0 98.09-7.93 168.82-23.57 210.26-16.24 42.96-46.35 64.74-89.44 64.74zm-30-940.5c-86.45 0-153.78 18.56-200.14 55.17-44.88 35.4-68.17 86.13-69.32 150.82h188.09c1.31-25.26 12.56-45.62 33.47-60.58a137.47 137.47 0 0 1 33.51-17.13 116.61 116.61 0 0 1 38.4-6.29c43.61 0 74.82 14.41 92.71 42.84 17.46 27.72 26.29 62.43 26.29 103.15v111.5h-10.61l-1.5-2.14c-20.46-29.23-45.93-52.97-75.68-70.55-29.59-17.45-60.8-26.3-92.72-26.3-79.86 0-140.78 30.79-181.08 91.52-40.75 61.34-61.4 166.15-61.4 311.49 0 46.65 2.76 94.9 8.2 143.43 5.42 48.24 16.88 92.43 34.13 131.29 17.02 38.49 42.21 70.37 74.9 94.76 32.47 24.23 76.64 36.5 131.24 36.5 28.02 0 57.52-7.89 87.74-23.43 29.86-15.43 54.84-43.94 74.25-84.72l1.35-2.85h11.18v90.01h187.99V694.12c0-102.14-25.51-179.68-75.79-230.46-50.31-50.78-136.19-76.52-255.21-76.52" style="fill:url(#f);fill-opacity:1;fill-rule:nonzero;stroke:none"/></g><path d="M48.18 163.06c-1.05 0-1.93.29-2.6.85a5.35 5.35 0 0 0-1.48 2.2c-.34.88-.57 1.9-.68 3.01a35.22 35.22 0 0 0-.17 3.5c0 2.35.06 4.37.17 6 .1 1.66.34 3.01.7 4.02a4.69 4.69 0 0 0 1.6 2.33 4.5 4.5 0 0 0 2.66.73c1.97 0 3.35-1 4.09-2.95.7-1.85 1.04-4.87 1.04-9.22 0-1.48-.08-2.87-.23-4.12a12.32 12.32 0 0 0-.82-3.28 5.55 5.55 0 0 0-1.63-2.23c-.7-.56-1.6-.84-2.65-.84zm-2.47 28.68c-2.33 0-4.2-.52-5.58-1.54a10 10 0 0 1-3.18-4.03 19.19 19.19 0 0 1-1.47-5.65c-.23-2.1-.35-4.19-.35-6.2 0-6.28.88-10.8 2.63-13.42 1.73-2.61 4.25-3.88 7.69-3.88 1.35 0 2.66.37 3.92 1.11 1.26.75 2.34 1.76 3.22 3l.13.2h.79v-5.07a8.5 8.5 0 0 0-1.18-4.6c-.82-1.3-2.24-1.96-4.21-1.96-.6 0-1.2.1-1.74.28-.54.19-1.04.45-1.5.77a3.5 3.5 0 0 0-1.54 2.6h-7.75c.1-2.67 1.05-4.7 2.92-6.17 1.98-1.56 4.86-2.35 8.57-2.35 5.1 0 8.79 1.1 10.93 3.26 2.15 2.17 3.23 5.48 3.23 9.86v32.88h-7.73v-3.91H52.67l-.12.24c-.82 1.73-1.88 2.94-3.13 3.59-1.28.66-2.53 1-3.71 1zm2.47-28.25c.96 0 1.75.25 2.38.75a5.1 5.1 0 0 1 1.5 2.06c.37.87.63 1.92.79 3.16.15 1.24.22 2.6.22 4.07 0 4.26-.33 7.28-1 9.06-.68 1.78-1.9 2.68-3.69 2.68-1 0-1.8-.22-2.41-.66a4.25 4.25 0 0 1-1.44-2.11 14.9 14.9 0 0 1-.68-3.92c-.1-1.62-.16-3.61-.16-5.96 0-1.22.05-2.37.16-3.45.1-1.1.33-2.06.65-2.9a4.9 4.9 0 0 1 1.37-2.03c.59-.5 1.36-.75 2.31-.75m-2.47 28.69c1.26 0 2.56-.35 3.9-1.05 1.35-.7 2.46-1.95 3.33-3.78h.13v3.91h8.6v-33.3c0-4.53-1.11-7.92-3.35-10.17-2.24-2.26-5.99-3.4-11.24-3.4-3.83 0-6.77.82-8.84 2.45-2.06 1.63-3.1 3.94-3.1 6.94h8.61c0-1.13.46-2.02 1.37-2.67.43-.3.9-.54 1.4-.72.5-.17 1.03-.26 1.6-.26 1.82 0 3.1.59 3.85 1.76a8.05 8.05 0 0 1 1.1 4.37v4.63h-.13a10.71 10.71 0 0 0-3.35-3.13 8.03 8.03 0 0 0-4.14-1.18c-3.57 0-6.25 1.36-8.05 4.08-1.8 2.71-2.7 7.27-2.7 13.66a56 56 0 0 0 .35 6.25c.24 2.13.74 4.05 1.5 5.77a10.4 10.4 0 0 0 3.32 4.2c1.46 1.1 3.4 1.64 5.84 1.64" style="fill:#2c2c2f;fill-opacity:1;fill-rule:nonzero;stroke:none;stroke-width:.0434564" transform="matrix(1.33333 0 0 -1.33333 0 301.33)"/><g clip-path="url(#g)" transform="matrix(.05794 0 0 -.05794 0 130.95)"><path d="M1766.79 658.65H1569.8v796.99h187.99v-108h11l1.41 2.63c20.57 38.19 45.84 69.21 75.19 92.18 28.96 22.67 64.78 34.17 106.4 34.17a233.22 233.22 0 0 0 32.49-2.26v-188.28c-9.31.78-18.38 1.38-27 1.78a648.9 648.9 0 0 1-32.48.79c-18.34 0-36.97-2.59-55.33-7.68a150.19 150.19 0 0 1-51.21-25.61c-15.57-11.94-28.17-27.69-37.46-46.79-9.3-19.11-14.01-42.8-14.01-70.43v-479.5" style="fill:url(#h);fill-opacity:1;fill-rule:nonzero;stroke:none"/></g><path d="M84.82 191.74a7.1 7.1 0 0 1-4.5-1.44 12.4 12.4 0 0 1-3.2-3.94l-.13-.22H76.17V190.83h-7.73v-34.2h8.12v20.62c0 1.23.21 2.3.63 3.15.42.87.99 1.58 1.7 2.11.69.54 1.46.92 2.3 1.15.81.23 1.64.35 2.45.35a30.29 30.29 0 0 0 2.37-.1v7.76a9.55 9.55 0 0 1-1.2.07zm0 .44a10.85 10.85 0 0 0 1.63-.13v-8.6a34.1 34.1 0 0 1-2.8.12c-.79 0-1.57-.1-2.35-.32a6.3 6.3 0 0 1-2.15-1.08 5.38 5.38 0 0 1-1.57-1.96c-.39-.8-.58-1.79-.58-2.96v-21.06h-9v35.07h8.6v-4.69h.14c.9 1.7 2.02 3.05 3.32 4.07a7.48 7.48 0 0 0 4.76 1.54" style="fill:#2c2c2f;fill-opacity:1;fill-rule:nonzero;stroke:none;stroke-width:.0434564" transform="matrix(1.33333 0 0 -1.33333 0 301.33)"/><g clip-path="url(#i)" transform="matrix(.05794 0 0 -.05794 0 130.95)"><path d="M2347.78 1345.65c-21.94 0-40.3-5.12-54.63-15.17-14.13-9.97-25.49-23.18-33.8-39.3-8.21-15.88-14.16-33.77-17.73-53.14a319.57 319.57 0 0 1-5.35-57.91V1143.64h221.66l-.15 5.17c-.98 31.01-3.02 58.66-6.03 82.21-3.07 23.91-8.5 44.58-16.16 61.42-7.87 17.36-19.12 30.7-33.38 39.68-14.27 8.98-32.57 13.53-54.43 13.53zm-1.49-703.5c-73.71 0-131.9 12.36-172.94 36.8-40.96 24.32-71.59 56.93-91.06 96.88-19.65 40.23-31.86 86.06-36.27 136.25a1739.83 1739.83 0 0 0-6.71 152.56c0 53.48 3.74 105.73 11.17 155.27 7.38 49.16 22.32 93.48 44.41 131.73 21.89 37.99 53.81 68.67 94.81 91.13 41.04 22.47 96.75 33.84 165.59 33.84 58.91 0 107.86-9.63 145.49-28.67 37.47-19.01 67.34-46.15 88.76-80.67 21.51-34.78 36.43-77.56 44.3-127.17 7.93-50.11 11.95-106.61 11.95-167.95v-41.5h-409.52v-69.51c0-24.2 1.79-47.92 5.32-70.53 3.56-22.9 9.49-43.53 17.65-61.3 8.27-18.12 19.33-32.84 32.9-43.82 13.85-11.17 31.05-16.85 51.14-16.85 36.67 0 63.83 13.4 80.72 39.82 15.88 24.76 27.03 62.33 33.2 111.68h176.34c-4.62-89.81-29.3-159.12-73.39-206.07-44.81-47.73-116.76-71.93-213.86-71.93" style="fill:url(#j);fill-opacity:1;fill-rule:nonzero;stroke:none"/></g><path d="M96.96 177.27v1.8c0 .85.08 1.71.24 2.56.16.86.42 1.66.79 2.37a4.26 4.26 0 0 0 4.04 2.48c.99 0 1.82-.2 2.48-.62a4.08 4.08 0 0 0 1.53-1.82 9.6 9.6 0 0 0 .72-2.73c.13-1.02.22-2.23.26-3.6l.02-.44H97.39zm5.4 14.47c-2.96 0-5.35-.49-7.1-1.44a10.24 10.24 0 0 1-4.04-3.88 16 16 0 0 1-1.9-5.65c-.32-2.14-.48-4.4-.48-6.72 0-2.2.1-4.41.29-6.6a16.6 16.6 0 0 1 1.55-5.85 9.73 9.73 0 0 1 3.88-4.12c1.75-1.04 4.24-1.57 7.4-1.57 4.16 0 7.23 1.03 9.14 3.06 1.84 1.96 2.89 4.85 3.11 8.59h-7.24c-.27-2.09-.76-3.68-1.45-4.76-.78-1.21-2.02-1.83-3.69-1.83-.92 0-1.72.27-2.36.78a5.37 5.37 0 0 0-1.49 1.99c-.36.79-.63 1.7-.78 2.72-.16.99-.24 2.03-.24 3.1v3.23h17.8v1.59c0 2.66-.17 5.1-.52 7.27a14.65 14.65 0 0 1-1.9 5.44 9.31 9.31 0 0 1-3.76 3.43c-1.6.8-3.7 1.22-6.23 1.22zm-4.96-14.03h9.19a38.27 38.27 0 0 1-.26 3.55 9.11 9.11 0 0 1-.69 2.6 3.64 3.64 0 0 1-1.36 1.63c-.6.37-1.34.56-2.25.56a3.82 3.82 0 0 1-3.65-2.25 8.06 8.06 0 0 1-.75-2.25c-.16-.83-.23-1.65-.23-2.48v-1.36m4.95 14.47c2.61 0 4.75-.43 6.42-1.27a9.7 9.7 0 0 0 3.95-3.59 15 15 0 0 0 1.95-5.6c.35-2.2.52-4.65.52-7.34v-2.02H97.4v-2.8c0-1.05.08-2.06.24-3.03.15-.98.4-1.85.75-2.61.34-.76.8-1.37 1.37-1.83a3.21 3.21 0 0 1 2.08-.68c1.52 0 2.63.54 3.33 1.63.69 1.08 1.17 2.74 1.43 4.95h8.08c-.17-4.08-1.26-7.2-3.26-9.32-2-2.13-5.15-3.2-9.45-3.2-3.26 0-5.8.55-7.63 1.64a10.1 10.1 0 0 0-4.04 4.3 16.94 16.94 0 0 0-1.6 6c-.19 2.21-.29 4.43-.29 6.64 0 2.35.17 4.61.5 6.78.32 2.18.97 4.11 1.95 5.8.98 1.7 2.38 3.05 4.2 4.05 1.83 1 4.26 1.5 7.3 1.5" style="fill:#2c2c2f;fill-opacity:1;fill-rule:nonzero;stroke:none;stroke-width:.0434564" transform="matrix(1.33333 0 0 -1.33333 0 301.33)"/><g clip-path="url(#k)" transform="matrix(.05794 0 0 -.05794 0 130.95)"><path d="M3042.28 1345.65c-21.94 0-40.3-5.12-54.63-15.17-14.13-9.97-25.5-23.18-33.81-39.3-8.2-15.88-14.15-33.77-17.73-53.14a320.46 320.46 0 0 1-5.34-57.91V1143.64H3152.45l-.17 5.17c-1.03 31.23-3.05 58.9-6.03 82.21-3.08 23.93-8.51 44.62-16.18 61.42-7.85 17.34-19.08 30.7-33.37 39.68-14.26 8.98-32.56 13.53-54.42 13.53zm-1.51-703.5c-73.71 0-131.9 12.36-172.92 36.8-40.98 24.34-71.61 56.93-91.07 96.88-19.65 40.18-31.83 86.02-36.27 136.25a1741.75 1741.75 0 0 0-6.73 152.56c0 53.39 3.77 105.63 11.2 155.27 7.38 49.15 22.31 93.46 44.38 131.73 21.92 37.99 53.83 68.67 94.81 91.13 41.06 22.47 96.77 33.84 165.6 33.84 58.92 0 107.88-9.63 145.51-28.67 37.46-19.01 67.34-46.15 88.75-80.67 21.52-34.78 36.44-77.56 44.3-127.17 7.93-50.02 11.93-106.52 11.93-167.95v-41.5h-409.49v-69.51c0-24.2 1.78-47.92 5.32-70.53 3.55-22.9 9.49-43.53 17.65-61.3 8.27-18.12 19.33-32.84 32.9-43.82 13.84-11.17 31.05-16.85 51.14-16.85 36.67 0 63.83 13.4 80.72 39.82 15.88 24.76 27.03 62.33 33.19 111.68h176.35c-4.63-89.81-29.3-159.12-73.4-206.07-44.8-47.73-116.75-71.93-213.87-71.93" style="fill:url(#l);fill-opacity:1;fill-rule:nonzero;stroke:none"/></g><path d="M127.14 177.27v1.8c0 .85.08 1.71.24 2.56.16.86.42 1.66.79 2.37a4.26 4.26 0 0 0 4.04 2.48c.99 0 1.82-.2 2.48-.62a4.08 4.08 0 0 0 1.53-1.82c.34-.75.58-1.67.72-2.73.13-1.02.22-2.23.26-3.6l.02-.44H127.57zm5.4 14.47c-2.96 0-5.35-.49-7.1-1.44a10.24 10.24 0 0 1-4.04-3.88 15.98 15.98 0 0 1-1.9-5.65c-.32-2.14-.48-4.4-.48-6.72 0-2.2.1-4.41.29-6.6a16.6 16.6 0 0 1 1.55-5.85 9.73 9.73 0 0 1 3.88-4.12c1.75-1.04 4.24-1.57 7.4-1.57 4.16 0 7.23 1.03 9.14 3.06 1.84 1.96 2.89 4.85 3.11 8.59h-7.24c-.27-2.09-.76-3.68-1.45-4.76-.78-1.21-2.02-1.83-3.69-1.83-.92 0-1.72.27-2.36.78a5.38 5.38 0 0 0-1.49 1.99c-.36.79-.63 1.7-.78 2.72-.16.99-.24 2.03-.24 3.1v3.23h17.8v1.59c0 2.66-.17 5.1-.52 7.27a14.66 14.66 0 0 1-1.9 5.44 9.31 9.31 0 0 1-3.76 3.43c-1.6.8-3.7 1.22-6.23 1.22zm-4.96-14.03h9.19a38.27 38.27 0 0 1-.26 3.55 9.1 9.1 0 0 1-.69 2.6 3.64 3.64 0 0 1-1.36 1.63c-.6.37-1.34.56-2.25.56a3.82 3.82 0 0 1-3.65-2.25 8.06 8.06 0 0 1-.75-2.25c-.16-.83-.23-1.65-.23-2.48v-1.36m4.95 14.47c2.61 0 4.75-.43 6.42-1.27a9.7 9.7 0 0 0 3.95-3.59c.95-1.54 1.6-3.41 1.95-5.6.35-2.2.52-4.65.52-7.34v-2.02h-17.8v-2.8c0-1.05.08-2.06.24-3.03.15-.98.4-1.85.75-2.61.34-.76.8-1.37 1.37-1.83a3.21 3.21 0 0 1 2.08-.68c1.52 0 2.63.54 3.33 1.63.69 1.08 1.17 2.74 1.43 4.95h8.08c-.17-4.08-1.26-7.2-3.26-9.32-2-2.13-5.15-3.2-9.45-3.2-3.26 0-5.8.55-7.63 1.64a10.1 10.1 0 0 0-4.04 4.3 16.94 16.94 0 0 0-1.6 6c-.19 2.21-.29 4.43-.29 6.64 0 2.35.17 4.61.5 6.78.32 2.18.97 4.11 1.95 5.8.98 1.7 2.38 3.05 4.2 4.05 1.83 1 4.26 1.5 7.3 1.5" style="fill:#2c2c2f;fill-opacity:1;fill-rule:nonzero;stroke:none;stroke-width:.0434564" transform="matrix(1.33333 0 0 -1.33333 0 301.33)"/><g clip-path="url(#m)" transform="matrix(.05794 0 0 -.05794 0 130.95)"><path d="M4060.27 658.65h-196.98v551.5c0 43.6-7.28 73.34-22.22 90.97-14.93 17.57-38.9 26.52-71.29 26.52-75.99 0-114.53-46.61-114.53-138.51V658.65h-196.96v796.99h187.98v-94.5h10.96l1.41 2.58c21.41 38.94 49.49 67.78 83.46 85.76 34.11 18.02 73.72 27.14 117.68 27.14 64.31 0 114.35-17.66 148.7-52.49 34.36-34.89 51.79-92.75 51.79-171.98v-593.5" style="fill:url(#n);fill-opacity:1;fill-rule:nonzero;stroke:none"/></g><path d="M167.73 191.74c-1.87 0-3.56-.39-5.01-1.15a8.75 8.75 0 0 1-3.54-3.64l-.12-.23H158.24v4.11h-7.74v-34.2h8.13v22.83c0 5.16 2.82 6.24 5.2 6.24 1.46 0 2.56-.41 3.26-1.23.68-.8 1.01-2.14 1.01-4.1v-23.74h8.13v25.57c0 3.39-.74 5.85-2.2 7.32-1.44 1.48-3.56 2.22-6.3 2.22zm0 .44c2.87 0 5.08-.79 6.62-2.35 1.54-1.57 2.31-4.1 2.31-7.63v-26h-9v24.18c0 1.82-.3 3.1-.9 3.81-.61.72-1.6 1.08-2.94 1.08-3.17 0-4.76-1.94-4.76-5.8v-23.28h-9v35.07h8.61v-4.1h.13c.96 1.73 2.2 3 3.72 3.81a11 11 0 0 0 5.21 1.2" style="fill:#2c2c2f;fill-opacity:1;fill-rule:nonzero;stroke:none;stroke-width:.0434564" transform="matrix(1.33333 0 0 -1.33333 0 301.33)"/><g clip-path="url(#o)" transform="matrix(.05794 0 0 -.05794 0 130.95)"><path d="M6143.1 658.65h-187.99v223.97h187.99V658.65" style="fill:url(#p);fill-opacity:1;fill-rule:nonzero;stroke:none"/></g><path d="M266.74 165.93H259v-9.3h7.74zm.43.43V156.2h-8.6v10.17h8.6" style="fill:#2c2c2f;fill-opacity:1;fill-rule:nonzero;stroke:none;stroke-width:.0434564" transform="matrix(1.33333 0 0 -1.33333 0 301.33)"/><g clip-path="url(#q)" transform="matrix(.05794 0 0 -.05794 0 130.95)"><path d="M6545.07 658.64h-197v665.99h-105v131.02h105v96.49c0 35.2 4.93 65.36 14.64 89.66 9.64 24.08 23.53 43.59 41.25 57.96 17.77 14.41 40.06 24.93 66.27 31.26 26.6 6.4 56.5 9.63 88.85 9.63 35.07 0 70.71-1.38 106-4.12V1599.9c-4.48.49-9.85.73-16.01.73h-19.51c-30.46 0-51.63-5.28-64.68-16.14-13.15-10.98-19.81-28.92-19.81-53.34v-75.5h120.01v-131.02h-120.01V658.64" style="fill:url(#r);fill-opacity:1;fill-rule:nonzero;stroke:none"/></g><path d="M285.03 203.21c-1.39 0-2.67-.13-3.8-.4a6.99 6.99 0 0 1-2.8-1.32 5.86 5.86 0 0 1-1.73-2.44 10.35 10.35 0 0 1-.62-3.81v-4.41h-4.56v-5.26h4.56v-28.94h8.13v28.94h5.21v5.26h-5.21v3.5c0 1.13.31 1.96.94 2.48.6.5 1.57.75 2.95.75H289.42v5.5c-1.46.1-2.93.15-4.39.15zm0 .44c1.61 0 3.22-.07 4.83-.2v-6.39c-.22.05-.52.07-.92.07h-.84c-1.26 0-2.15-.22-2.67-.65-.53-.44-.79-1.15-.79-2.15v-3.07h5.22v-6.12h-5.22v-28.95h-9v28.95h-4.56v6.12h4.57v3.98c0 1.56.21 2.89.65 3.98a6.26 6.26 0 0 0 1.86 2.6c.8.66 1.79 1.12 2.96 1.4 1.18.29 2.48.43 3.91.43" style="fill:#2c2c2f;fill-opacity:1;fill-rule:nonzero;stroke:none;stroke-width:.0434564" transform="matrix(1.33333 0 0 -1.33333 0 301.33)"/><g clip-path="url(#s)" transform="matrix(.05794 0 0 -.05794 0 130.95)"><path d="M6944.07 658.65h-196.99v797h187.99v-108.01h10.98l1.42 2.63c20.57 38.2 45.86 69.22 75.17 92.18 28.99 22.69 64.8 34.18 106.42 34.18 5.82 0 11.83-.23 18.37-.72 4.81-.38 9.55-.9 14.13-1.56v-188.26c-9.6.79-18.47 1.38-27 1.79-10.52.51-21.46.77-32.5.77-18.3 0-36.89-2.58-55.33-7.7a150.64 150.64 0 0 1-51.2-25.59c-15.54-11.93-28.16-27.66-37.45-46.79-9.31-19.09-14.01-42.79-14.01-70.43v-479.5" style="fill:url(#t);fill-opacity:1;fill-rule:nonzero;stroke:none"/></g><path d="M309.8 191.74a7.1 7.1 0 0 1-4.49-1.44 12.4 12.4 0 0 1-3.2-3.94l-.13-.22H301.16V190.83h-7.74v-34.2h8.13v20.62c0 1.23.2 2.3.63 3.15.42.87.98 1.58 1.69 2.11.7.54 1.46.92 2.3 1.15.82.23 1.65.35 2.46.35a30.27 30.27 0 0 0 2.37-.1v7.76a9.48 9.48 0 0 1-1.2.07zm0 .44a10.85 10.85 0 0 0 1.63-.13v-8.6a34.1 34.1 0 0 1-2.8.12c-.78 0-1.56-.1-2.35-.32a6.3 6.3 0 0 1-2.15-1.08 5.38 5.38 0 0 1-1.56-1.96c-.4-.8-.59-1.79-.59-2.96v-21.06h-9v35.07h8.61v-4.69h.13c.91 1.7 2.02 3.05 3.33 4.07a7.48 7.48 0 0 0 4.75 1.54" style="fill:#2c2c2f;fill-opacity:1;fill-rule:nonzero;stroke:none;stroke-width:.0434564" transform="matrix(1.33333 0 0 -1.33333 0 301.33)"/><path d="M198.65 202.74h9.39v-46.55h-9.39v46.55M242.26 195.04H232.1V156.2h-9.38v38.85h-10.17v7.7h29.72v-7.7" style="fill:#fff;fill-opacity:1;fill-rule:nonzero;stroke:none;stroke-width:.0434564" transform="matrix(1.33333 0 0 -1.33333 0 301.33)"/><g clip-path="url(#u)" transform="matrix(.05794 0 0 -.05794 0 130.95)"><path d="M5735.07 396.73H4354.2v19.98H5715v1473.66h20.07V396.73" style="fill:url(#v);fill-opacity:1;fill-rule:nonzero;stroke:none"/></g><path d="M249.66 144.6h-60.44v.43h60v64.9h.44V144.6" style="fill:#4e9d38;fill-opacity:1;fill-rule:nonzero;stroke:none;stroke-width:.0434564" transform="matrix(1.33333 0 0 -1.33333 0 301.33)"/><g clip-path="url(#w)" transform="matrix(.05794 0 0 -.05794 0 130.95)"><path d="M4334.22 396.73h19.98v19.98h-19.98Z" style="fill:url(#x);fill-opacity:1;fill-rule:nonzero;stroke:none"/></g><path d="M189.22 144.6h-1.3v1.3h.43v-.87h.87v-.43" style="fill:#8abb61;fill-opacity:1;fill-rule:nonzero;stroke:none;stroke-width:.0434564" transform="matrix(1.33333 0 0 -1.33333 0 301.33)"/><g clip-path="url(#y)" transform="matrix(.05794 0 0 -.05794 0 130.95)"><path d="M5715 1890.37h20.07v19.98H5715Z" style="fill:url(#z);fill-opacity:1;fill-rule:nonzero;stroke:none"/></g><path d="M249.66 209.94h-.43v.87h-.88v.43h1.31v-1.3" style="fill:#8abb61;fill-opacity:1;fill-rule:nonzero;stroke:none;stroke-width:.0434564" transform="matrix(1.33333 0 0 -1.33333 0 301.33)"/><g clip-path="url(#A)" transform="matrix(.05794 0 0 -.05794 0 130.95)"><path d="M5124.83 653.65h20v873.99h-20zm-553.49 0h20v1050.99h196v20h-216zm319.49 1070.99v-177h20v157h664v20h-684" style="fill:url(#B);fill-opacity:1;fill-rule:nonzero;stroke:none"/></g></svg>