<svg xmlns="http://www.w3.org/2000/svg" width="52" height="48" viewBox="0 0 52 48">
    <g fill="none">
        <path fill="#4386FA" d="M11.942 44.906L.766 25.107c-.597-1.058-.597-2.361 0-3.42L11.942 1.89C12.538.832 13.64.18 14.832.179h22.364c1.188.006 2.284.657 2.878 1.71L51.25 21.688c.597 1.058.597 2.361 0 3.419l-11.176 19.8c-.596 1.056-1.697 1.707-2.89 1.709H14.827c-1.191-.004-2.29-.655-2.885-1.71z" transform="translate(0 .5)"/>
        <path fill="#000" d="M32.99 17.022s3.108 7.622-1.128 11.942-11.948 1.556-11.948 1.556S31.379 42.4 35.603 46.61h1.593c1.193-.002 2.294-.654 2.89-1.71l7.399-13.103L32.99 17.022z" opacity=".1" transform="translate(0 .5)"/>
        <path fill="#FFF" d="M36.659 32.618l-3.434-3.512c-.037-.039-.08-.072-.126-.098 3.015-3.991 2.476-9.693-1.232-13.018-3.709-3.325-9.306-3.127-12.78.453-3.474 3.58-3.627 9.306-.348 13.073 3.278 3.768 8.857 4.278 12.736 1.164.025.045.055.087.091.124L35 34.315c.1.104.237.162.38.162.142 0 .28-.058.38-.162l.899-.92c.101-.102.158-.242.158-.388 0-.146-.057-.286-.158-.389zm-10.94-2.271c-3.88 0-7.024-3.217-7.024-7.184 0-3.968 3.144-7.184 7.024-7.184 3.879 0 7.024 3.216 7.024 7.184 0 1.905-.74 3.732-2.058 5.08-1.317 1.347-3.103 2.104-4.966 2.104z" transform="translate(0 .5)"/>
        <path fill="#FFF" d="M21.229 22.78v2.969c.447.807 1.095 1.48 1.877 1.95v-4.937l-1.877.018z" transform="translate(0 .5)"/>
        <path fill="#FFF" d="M21.229 22.78v2.969c.447.807 1.095 1.48 1.877 1.95v-4.937l-1.877.018zM24.741 20.318v8.023c.62.117 1.256.117 1.877 0v-8.023H24.74z" transform="translate(0 .5)"/>
        <path fill="#FFF" d="M24.741 20.318v8.023c.62.117 1.256.117 1.877 0v-8.023H24.74zM30.172 25.743v-1.76h-1.877v3.704c.782-.469 1.429-1.14 1.877-1.944z" transform="translate(0 .5)"/>
        <path fill="#FFF" d="M30.172 25.743v-1.76h-1.877v3.704c.782-.469 1.429-1.14 1.877-1.944z" transform="translate(0 .5)"/>
    </g>
</svg>
