<svg xmlns="http://www.w3.org/2000/svg" xmlns:xlink="http://www.w3.org/1999/xlink" width="52" height="52" viewBox="0 0 52 52">
    <defs>
        <linearGradient id="prefix__b" x1="49.994%" x2="49.994%" y1=".226%" y2="99.725%">
            <stop offset="0%" stop-color="#212121" stop-opacity=".04"/>
            <stop offset="66%" stop-color="#212121" stop-opacity="0"/>
        </linearGradient>
        <linearGradient id="prefix__e" x1="36.626%" x2="64.01%" y1="20.358%" y2="100.652%">
            <stop offset="0%" stop-color="#FFF" stop-opacity=".1"/>
            <stop offset="100%" stop-color="#FFF" stop-opacity="0"/>
        </linearGradient>
        <linearGradient id="prefix__f" x1="68.935%" x2="31.065%" y1="65.756%" y2="35.799%">
            <stop offset="0%" stop-color="#262626" stop-opacity=".1"/>
            <stop offset="100%" stop-color="#262626" stop-opacity="0"/>
        </linearGradient>
        <linearGradient id="prefix__g" x1="0%" x2="100%" y1="50%" y2="50%">
            <stop offset="0%" stop-color="#262626" stop-opacity=".1"/>
            <stop offset="100%" stop-color="#262626" stop-opacity="0"/>
        </linearGradient>
        <linearGradient id="prefix__i" x1="49.994%" x2="49.994%" y1=".226%" y2="99.725%">
            <stop offset="0%" stop-color="#212121" stop-opacity=".04"/>
            <stop offset="66%" stop-color="#212121" stop-opacity="0"/>
        </linearGradient>
        <path id="prefix__a" d="M43.132 18.221h-1.555c-.659-1.865-2.435-3.2-4.524-3.2-2.65 0-4.8 2.15-4.8 4.8s2.15 4.8 4.8 4.8h6.08c1.766 0 3.2-1.433 3.2-3.2 0-1.766-1.434-3.2-3.2-3.2z"/>
        <path id="prefix__c" d="M43.132 18.221h-6.08v6.4h6.08c1.767 0 3.2-1.433 3.2-3.2 0-1.766-1.433-3.2-3.2-3.2z"/>
        <path id="prefix__h" d="M18.91 24.228h-1.794c-.76-2.153-2.81-3.693-5.22-3.693-3.058 0-5.54 2.482-5.54 5.539 0 3.057 2.482 5.538 5.54 5.538h7.015c2.038 0 3.692-1.654 3.692-3.692 0-2.038-1.654-3.692-3.692-3.692z"/>
        <path id="prefix__j" d="M18.91 24.228h-7.015v7.384h7.016c2.038 0 3.692-1.654 3.692-3.692 0-2.038-1.654-3.692-3.692-3.692z"/>
        <radialGradient id="prefix__d" cx="10.105%" cy="14.269%" r="144.567%" fx="10.105%" fy="14.269%" gradientTransform="matrix(.68181 0 0 1 .032 0)">
            <stop offset="0%" stop-color="#FFF" stop-opacity=".1"/>
            <stop offset="100%" stop-color="#FFF" stop-opacity="0"/>
        </radialGradient>
        <radialGradient id="prefix__k" cx="10.105%" cy="14.269%" r="144.566%" fx="10.105%" fy="14.269%" gradientTransform="matrix(.68182 0 0 1 .032 0)">
            <stop offset="0%" stop-color="#FFF" stop-opacity=".1"/>
            <stop offset="100%" stop-color="#FFF" stop-opacity="0"/>
        </radialGradient>
        <radialGradient id="prefix__l" cx="14.489%" cy="14.584%" r="99.973%" fx="14.489%" fy="14.584%">
            <stop offset="0%" stop-color="#FFF" stop-opacity=".1"/>
            <stop offset="100%" stop-color="#FFF" stop-opacity="0"/>
        </radialGradient>
    </defs>
    <g fill="none" fill-rule="evenodd">
        <circle cx="26" cy="26" r="25.994" fill="#0535C1" fill-rule="nonzero"/>
        <path d="M31.612 11.821L46.973 11.821 46.973 27.182 31.612 27.182z"/>
        <path fill="#EAEAEA" fill-rule="nonzero" d="M43.132 18.221h-1.555c-.659-1.865-2.435-3.2-4.524-3.2-2.65 0-4.8 2.15-4.8 4.8s2.15 4.8 4.8 4.8h6.08c1.766 0 3.2-1.433 3.2-3.2 0-1.766-1.434-3.2-3.2-3.2z"/>
        <path fill="#FFF" fill-opacity=".2" fill-rule="nonzero" d="M46.333 21.46v-.039c0-1.766-1.434-3.2-3.2-3.2h-1.6v.08h1.6c1.753 0 3.177 1.412 3.2 3.159z"/>
        <path fill="url(#prefix__b)" fill-rule="nonzero" d="M47.981 24.621L37.053 24.621 41.581 18.221z"/>
        <path fill="#E1E1E1" fill-rule="nonzero" d="M37.053 15.021l2.595 8.196c.867-.87 2.205-2.07 2.205-3.396 0-2.65-2.15-4.8-4.8-4.8z"/>
        <circle cx="37.053" cy="19.821" r="4.8" fill="#EEE" fill-rule="nonzero"/>
        <path fill="#FFF" fill-opacity=".2" fill-rule="nonzero" d="M37.053 15.101c2.636 0 4.777 2.128 4.8 4.762v-.039c0-2.65-2.15-4.8-4.8-4.8s-4.8 2.148-4.8 4.797v.039c.022-2.63 2.163-4.759 4.8-4.759z"/>
        <path fill="#212121" fill-opacity=".1" fill-rule="nonzero" d="M43.132 24.542h-6.08c-2.636 0-4.777-2.129-4.8-4.762v.038c0 2.65 2.15 4.8 4.8 4.8h6.08c1.767 0 3.2-1.433 3.2-3.2v-.038c-.022 1.75-1.446 3.161-3.2 3.161z"/>
        <path fill="url(#prefix__d)" fill-rule="nonzero" d="M43.132 18.221h-1.555c-.659-1.865-2.435-3.2-4.524-3.2-2.65 0-4.8 2.15-4.8 4.8s2.15 4.8 4.8 4.8h6.08c1.766 0 3.2-1.433 3.2-3.2 0-1.766-1.434-3.2-3.2-3.2z"/>
        <path fill="#FFF176" fill-rule="nonzero" d="M18.911 10.935L32.499 10.935 32.499 22.751 18.911 22.751z"/>
        <path fill="#FFF" fill-rule="nonzero" d="M17.434 28.954L33.68 28.954 33.68 45.2 17.434 45.2z"/>
        <path fill="#F4481E" fill-rule="nonzero" d="M35.452 21.57h2.363v4.725h-23.63V21.57h2.363v-9.452L26 6.209l9.452 5.908v9.452zm-4.726 0v-6.834L26 11.782l-4.726 2.954v6.833h9.452z"/>
        <path fill="#F4481E" fill-rule="nonzero" d="M13.135 48.592l4.003-27.023h17.724l4.003 27.023C35.072 50.757 30.68 51.994 26 51.994s-9.072-1.237-12.865-3.402zm18.157-18.87l-11.119 3.613-1.351 9.12 13.697-4.45-1.227-8.283z"/>
        <path fill="url(#prefix__e)" fill-rule="nonzero" d="M35.43 26.295l3.303 22.297c-3.793 2.165-8.185 3.402-12.865 3.402s-9.071-1.237-12.865-3.402l3.303-22.297h-2.121V21.57h2.363v-9.452L26 6.209l9.452 5.908v9.452h2.363v4.726H35.43z"/>
        <path fill="url(#prefix__f)" fill-rule="nonzero" d="M26 21.569L16.548 21.569 16.548 12.117 26 6.209z"/>
        <path fill="url(#prefix__g)" fill-rule="nonzero" d="M14.185 21.569L26 21.569 26 26.295 14.185 26.295z" transform="matrix(-1 0 0 1 40.185 0)"/>
        <path d="M5.618 16.843L23.342 16.843 23.342 34.566 5.618 34.566z"/>
        <path fill="#FAFAFA" fill-rule="nonzero" d="M18.91 24.228h-1.794c-.76-2.153-2.81-3.693-5.22-3.693-3.058 0-5.54 2.482-5.54 5.539 0 3.057 2.482 5.538 5.54 5.538h7.015c2.038 0 3.692-1.654 3.692-3.692 0-2.038-1.654-3.692-3.692-3.692z"/>
        <path fill="#FFF" fill-opacity=".2" fill-rule="nonzero" d="M22.603 27.964v-.044c0-2.038-1.654-3.692-3.692-3.692h-1.846v.092h1.846c2.023 0 3.666 1.628 3.692 3.644z"/>
        <path fill="url(#prefix__i)" fill-rule="nonzero" d="M24.505 31.612L11.895 31.612 17.12 24.228z"/>
        <path fill="#E1E1E1" fill-rule="nonzero" d="M11.895 20.535l2.995 9.457c1-1.005 2.544-2.39 2.544-3.918 0-3.057-2.481-5.539-5.539-5.539z"/>
        <circle cx="11.895" cy="26.074" r="5.539" fill="#FFF" fill-rule="nonzero"/>
        <path fill="#FFF" fill-opacity=".2" fill-rule="nonzero" d="M11.895 20.628c3.043 0 5.513 2.455 5.539 5.494v-.044c0-3.058-2.481-5.539-5.539-5.539-3.057 0-5.538 2.478-5.538 5.535v.044c.025-3.035 2.496-5.49 5.538-5.49z"/>
        <path fill="#212121" fill-opacity=".1" fill-rule="nonzero" d="M18.91 31.52h-7.015c-3.042 0-5.513-2.455-5.538-5.494v.044c0 3.058 2.481 5.539 5.538 5.539h7.016c2.038 0 3.692-1.654 3.692-3.693v-.044c-.026 2.02-1.669 3.648-3.692 3.648z"/>
        <path fill="url(#prefix__k)" fill-rule="nonzero" d="M18.91 24.228h-1.794c-.76-2.153-2.81-3.693-5.22-3.693-3.058 0-5.54 2.482-5.54 5.539 0 3.057 2.482 5.538 5.54 5.538h7.015c2.038 0 3.692-1.654 3.692-3.692 0-2.038-1.654-3.692-3.692-3.692z"/>
        <path fill="#FFF" fill-rule="nonzero" d="M26 .278c14.312 0 25.917 11.564 25.991 25.858 0-.044.003-.089.003-.136C51.994 11.644 40.356.006 26 .006S.006 11.644.006 26c0 .044.003.089.003.136C.083 11.842 11.689.278 26 .278z"/>
        <circle cx="26" cy="26" r="25.994" fill="url(#prefix__l)" fill-rule="nonzero"/>
    </g>
</svg>
