<svg xmlns="http://www.w3.org/2000/svg" width="44" height="44" viewBox="0 0 44 44">
    <g fill="none">
        <path fill="#36C5F0" d="M16.13 0c-2.432.002-4.4 1.971-4.398 4.398-.002 2.427 1.968 4.397 4.4 4.398h4.4V4.4C20.533 1.973 18.563.004 16.13 0c.002 0 .002 0 0 0m0 11.73H4.4c-2.432.003-4.402 1.972-4.4 4.4-.004 2.426 1.966 4.396 4.398 4.4H16.13c2.432-.003 4.402-1.972 4.4-4.4.002-2.428-1.968-4.397-4.4-4.4z"/>
        <path fill="#2EB67D" d="M43.993 16.13c.002-2.428-1.968-4.397-4.4-4.4-2.432.003-4.402 1.972-4.4 4.4v4.4h4.4c2.432-.003 4.402-1.972 4.4-4.4zm-11.732 0V4.397C32.263 1.973 30.295.004 27.863 0c-2.432.002-4.402 1.971-4.4 4.398V16.13c-.004 2.427 1.966 4.397 4.398 4.4 2.432-.002 4.402-1.971 4.4-4.4z"/>
        <path fill="#ECB22E" d="M27.861 43.991c2.432-.002 4.402-1.971 4.4-4.398.002-2.427-1.968-4.397-4.4-4.398h-4.4v4.398c-.002 2.425 1.968 4.394 4.4 4.398zm0-11.733h11.732c2.432-.001 4.402-1.971 4.4-4.398.003-2.427-1.967-4.396-4.398-4.4H27.863c-2.432.002-4.402 1.971-4.4 4.398-.002 2.429 1.966 4.399 4.398 4.4z"/>
        <path fill="#E01E5A" d="M0 27.86c-.002 2.427 1.968 4.397 4.4 4.398 2.432-.001 4.402-1.971 4.4-4.398v-4.398H4.4c-2.432.002-4.402 1.971-4.4 4.398zm11.732 0v11.731c-.004 2.427 1.966 4.396 4.398 4.4 2.432-.002 4.402-1.971 4.4-4.398v-11.73c.003-2.426-1.967-4.396-4.398-4.4-2.434 0-4.402 1.97-4.4 4.397 0 0 0 .002 0 0"/>
    </g>
</svg>
