<svg width="39.84" height="43" xmlns="http://www.w3.org/2000/svg"><defs><linearGradient x1="0" y1="0" x2="1" y2="0" gradientUnits="userSpaceOnUse" gradientTransform="scale(2090.63 -2090.63) rotate(47.19 2.09 1.9)" spreadMethod="pad" id="b"><stop style="stop-opacity:1;stop-color:#b2de5c" offset="0"/><stop style="stop-opacity:1;stop-color:#6aae30" offset="1"/></linearGradient><linearGradient x1="0" y1="0" x2="1" y2="0" gradientUnits="userSpaceOnUse" gradientTransform="scale(2090.63 -2090.63) rotate(47.19 2.09 1.9)" spreadMethod="pad" id="d"><stop style="stop-opacity:1;stop-color:#e0f2b9" offset="0"/><stop style="stop-opacity:1;stop-color:#c2da9b" offset="1"/></linearGradient><linearGradient x1="0" y1="0" x2="1" y2="0" gradientUnits="userSpaceOnUse" gradientTransform="scale(2090.63 -2090.63) rotate(47.19 2.09 1.9)" spreadMethod="pad" id="f"><stop style="stop-opacity:1;stop-color:#7dc047" offset="0"/><stop style="stop-opacity:1;stop-color:#4e9d38" offset="1"/></linearGradient><linearGradient x1="0" y1="0" x2="1" y2="0" gradientUnits="userSpaceOnUse" gradientTransform="scale(2090.63 -2090.63) rotate(47.19 2.09 1.9)" spreadMethod="pad" id="h"><stop style="stop-opacity:1;stop-color:#9ecb6b" offset="0"/><stop style="stop-opacity:1;stop-color:#8abb61" offset="1"/></linearGradient><linearGradient x1="0" y1="0" x2="1" y2="0" gradientUnits="userSpaceOnUse" gradientTransform="scale(2090.63 -2090.63) rotate(47.19 2.09 1.9)" spreadMethod="pad" id="j"><stop style="stop-opacity:1;stop-color:#9ecb6b" offset="0"/><stop style="stop-opacity:1;stop-color:#8abb61" offset="1"/></linearGradient><linearGradient x1="0" y1="0" x2="1" y2="0" gradientUnits="userSpaceOnUse" gradientTransform="scale(-3257.02 3257.02) rotate(90 -.72 -.83)" spreadMethod="pad" id="l"><stop style="stop-opacity:1;stop-color:#fff" offset="0"/><stop style="stop-opacity:1;stop-color:#231f20" offset="1"/></linearGradient><clipPath clipPathUnits="userSpaceOnUse" id="a"><path d="M4354.2 416.71H5715v1473.66H4354.2Z"/></clipPath><clipPath clipPathUnits="userSpaceOnUse" id="c"><path d="M4354.2 416.71h-19.98v1493.64H5715v-19.98H4354.2V416.71"/></clipPath><clipPath clipPathUnits="userSpaceOnUse" id="e"><path d="M5735.07 396.73H4354.2v19.98H5715v1473.66h20.07V396.73"/></clipPath><clipPath clipPathUnits="userSpaceOnUse" id="g"><path d="M4334.22 396.73h19.98v19.98h-19.98Z"/></clipPath><clipPath clipPathUnits="userSpaceOnUse" id="i"><path d="M5715 1890.37h20.07v19.98H5715Z"/></clipPath><clipPath clipPathUnits="userSpaceOnUse" id="k"><path d="M5124.83 653.65h20v873.99h-20zm-553.49 0h20v1050.99h196v20h-216zm319.49 1070.99v-177h20v157h664v20z"/></clipPath></defs><g clip-path="url(#a)" transform="matrix(.02804 0 0 -.02804 -121.25 53.84)"><path d="M4354.2 416.71H5715v1473.66H4354.2Z" style="fill:url(#b);fill-opacity:1;fill-rule:nonzero;stroke:none"/></g><path d="M31.66 223.5H2.2v-31.84h29.46v31.83m.21.21v-32.25H2v32.25h29.88" style="fill:#6aae30;fill-opacity:1;fill-rule:nonzero;stroke:none;stroke-width:.0210289" transform="matrix(1.33333 0 0 -1.33333 -2.66 298.27)"/><g clip-path="url(#c)" transform="matrix(.02804 0 0 -.02804 -121.25 53.84)"><path d="M4354.2 416.71h-19.98v1493.64H5715v-19.98H4354.2V416.71" style="fill:url(#d);fill-opacity:1;fill-rule:nonzero;stroke:none"/></g><path d="M2 191.45v32.25h29.87-.63v-.2H2.2v-31.42H2v-.63" style="fill:#c2da9b;fill-opacity:1;fill-rule:nonzero;stroke:none;stroke-width:.0210289" transform="matrix(1.33333 0 0 -1.33333 -2.66 298.27)"/><path d="M7.2 219.59h4.53v-22.52H7.2v22.52M28.3 215.87h-4.93v-18.8h-4.54v18.8h-4.92v3.72h14.38v-3.72" style="fill:#fff;fill-opacity:1;fill-rule:nonzero;stroke:none;stroke-width:.0210289" transform="matrix(1.33333 0 0 -1.33333 -2.66 298.27)"/><g clip-path="url(#e)" transform="matrix(.02804 0 0 -.02804 -121.25 53.84)"><path d="M5735.07 396.73H4354.2v19.98H5715v1473.66h20.07V396.73" style="fill:url(#f);fill-opacity:1;fill-rule:nonzero;stroke:none"/></g><path d="M31.87 191.45H2.62v.21h29.04v31.41h.21v-31.62" style="fill:#4e9d38;fill-opacity:1;fill-rule:nonzero;stroke:none;stroke-width:.0210289" transform="matrix(1.33333 0 0 -1.33333 -2.66 298.27)"/><g clip-path="url(#g)" transform="matrix(.02804 0 0 -.02804 -121.25 53.84)"><path d="M4334.22 396.73h19.98v19.98h-19.98Z" style="fill:url(#h);fill-opacity:1;fill-rule:nonzero;stroke:none"/></g><path d="M2.62 191.45H2v.63h.21v-.42h.42v-.2" style="fill:#8abb61;fill-opacity:1;fill-rule:nonzero;stroke:none;stroke-width:.0210289" transform="matrix(1.33333 0 0 -1.33333 -2.66 298.27)"/><g clip-path="url(#i)" transform="matrix(.02804 0 0 -.02804 -121.25 53.84)"><path d="M5715 1890.37h20.07v19.98H5715Z" style="fill:url(#j);fill-opacity:1;fill-rule:nonzero;stroke:none"/></g><path d="M31.87 223.07h-.2v.42h-.43v.21h.63v-.63" style="fill:#8abb61;fill-opacity:1;fill-rule:nonzero;stroke:none;stroke-width:.0210289" transform="matrix(1.33333 0 0 -1.33333 -2.66 298.27)"/><g clip-path="url(#k)" transform="matrix(.02804 0 0 -.02804 -121.25 53.84)"><path d="M5124.83 653.65h20v873.99h-20zm-553.49 0h20v1050.99h196v20h-216zm319.49 1070.99v-177h20v157h664v20h-684" style="fill:url(#l);fill-opacity:1;fill-rule:nonzero;stroke:none"/></g></svg>