<svg xmlns="http://www.w3.org/2000/svg" width="38" height="46" viewBox="0 0 38 46">
    <path fill="#ED2E26" d="M18.997 0C31.37 0 37.591 6.73 37.591 6.73s.712 4.983.258 15.014C37.163 36.898 19.002 46 19 46l-.022-.01C18.28 45.633.824 36.594.152 21.743-.303 11.713.409 6.731.409 6.731S6.624 0 18.997 0zM19 5.81c-7.596 0-13.775 6.3-13.775 14.042 0 4.676 1.91 8.83 5.524 12.014 3.378 2.976 8.32 4.962 13.947 5.902 1.219-.686 3.304-2.714 4.086-3.9-4.7-.616-9.147-1.785-12.129-3.379-4.556-2.436-6.866-5.926-6.866-10.371 0-5.33 4.133-9.665 9.213-9.665 5.084 0 9.22 4.216 9.22 9.399 0 4.138-3.488 7.542-6.178 9.291 1.044.607 3.346 1.244 5.55 1.45 3.22-2.54 5.183-6.465 5.183-10.741 0-7.743-6.18-14.041-13.775-14.041z"/>
</svg>
