<svg xmlns="http://www.w3.org/2000/svg" width="61" height="18" viewBox="0 0 61 18">
    <path fill="#3D3D3D" d="M25.572 10.614v7.172H.5v-7.172h25.072zm-4.509 1.18h-.835l-1.282 4.838h.836l1.281-4.838zm-1.814 0h-.836l-1.281 4.838h.835l1.282-4.838zm3.5.907c-.479-.007-.953.095-1.385.299l-.126.731.738.079.097-.36.119-.046c.121-.038.249-.054.376-.045.484 0 .527.33.53.636v.183l-.176-.017c-.117-.009-.235-.012-.354-.011-.738 0-1.505.183-1.505.967 0 .653.53.91.997.91.44-.003.841-.249 1.039-.636.01.352.306.636.663.636.015 0 .03 0 .046-.002.203-.002.403-.053.582-.148v-.48l-.068.016-.07.006c-.15 0-.22-.063-.22-.246V13.79l-.007-.132c-.067-.64-.625-.957-1.275-.957zm-8.235 0h-2.717l-.108 1.165.637.075.137-.517h.967l-1.701 2.103.089.5h2.704l.19-1.165-.698-.073-.143.517h-1.003l1.716-2.102-.07-.503zm-8.452 0c-.02 0-.042 0-.063.002-.468-.018-.899.265-1.066.701-.158-.443-.595-.73-1.066-.701-.41-.017-.795.2-.992.557v-.49H1.5v.708h.434v1.841H1.5v.708h1.994v-.71H2.87v-1.133l.004-.11c.028-.388.215-.663.626-.663.37 0 .56.223.56.78v1.834h1.37v-.708h-.437v-1.133l.004-.11c.028-.388.215-.663.627-.663.368 0 .558.223.558.78v1.834h1.366v-.708h-.431V13.83l.002-.038v-.038c0-.577-.477-1.053-1.057-1.053zm3.305 0c-1.217 0-1.819.77-1.819 1.704.01 1.024.732 1.622 1.775 1.622 1.082 0 1.854-.655 1.854-1.663 0-.893-.593-1.663-1.81-1.663zm7.437 1.924h-.882v1.024h.882v-1.024zm5.84-.048c.156.003.312.017.466.04-.033.537-.385.755-.714.755l-.032.001c-.186 0-.338-.15-.338-.333v-.028c0-.346.288-.435.618-.435zM9.36 13.407c.463.001.826.291.826.935 0 .61-.331.991-.834.991-.503 0-.797-.426-.797-.976.002-.558.265-.894.695-.943l.11-.006zm7.443-.706h-.882v1.024h.882v-1.024zM57.387 2.545v1.04H56.9l.997 2.233h.065l.736-2.232h-.422V2.545h2.232v1.04h-.477l-1.571 3.8-.466 1.213h.64v1.074h-2.699V8.598h.78l.39-1.138-1.711-3.874h-.499V2.545h2.492zM37.43 2.448c.998 0 1.85.484 1.933 1.48l.007.162v2.104c0 .279.108.376.335.376.044 0 .087-.005.134-.015l.072-.018.011.73c-.26.14-.574.226-.878.226-.603 0-.955-.324-1.054-.835l-.018-.12v-.011c-.282.493-.78.966-1.571.966-.705 0-1.506-.376-1.506-1.385 0-1.191 1.159-1.47 2.275-1.47.18 0 .366.004.543.017l.259.026V4.52c0-.494-.011-1.085-.802-1.085-.234 0-.426.014-.61.08l-.138.06-.184.687-1.116-.118.217-1.256c.856-.343 1.29-.44 2.091-.44zm4.81-1.374v1.47h1.756v.988H42.24V5.7c0 .462.238.633.585.633.162 0 .503-.037.618-.627l.021-.135 1.019.312c-.141 1.116-.802 1.61-1.82 1.61-1.027 0-1.742-.501-1.815-1.403l-.006-.154V3.532h-.693v-.987h.693v-1.47h1.398zM21.6 2.448c1.354 0 2.275.848 2.297 2.104 0 .16-.012.334-.041.514l-.035.183h-3.207c.076.752.444 1.149 1.148 1.149.698 0 .924-.402.995-.691l.013-.06 1.17.214c-.065.859-.866 1.632-2.275 1.632-1.452 0-2.514-.816-2.514-2.437 0-1.492.9-2.608 2.449-2.608zm-5.147 0c.57 0 1.08.099 1.605.332l.226.108.12 1.234-1.084.118-.087-.676c-.26-.086-.541-.118-.769-.118-.357 0-.65.14-.65.462 0 .837 2.85.129 2.85 1.996 0 1.073-.954 1.589-2.32 1.589-.615 0-1.256-.107-1.843-.357l-.247-.116.195-1.352 1.083.118v.601c.26.086.585.097.737.097.531 0 .986-.172.986-.515 0-.827-2.947-.097-2.947-2.018 0-1.192 1.148-1.503 2.145-1.503zM9.984.001v3.467c.26-.558.758-1.02 1.647-1.02 1.235 0 2.09.89 2.09 2.404 0 1.428-.768 2.64-2.242 2.64-.77 0-1.29-.321-1.571-.837l-.05.365-.058.365H8.402c.086-.403.152-.807.175-1.2l.009-.292v-4.84h-.65V0h2.048zM4.133.3c2.253 0 3.586 1.621 3.586 3.585 0 1.975-1.343 3.607-3.63 3.607C1.792 7.493.525 5.85.525 3.908.525 1.868 1.922.3 4.133.3zm43.102 2.136c1.766 0 2.611 1.17 2.611 2.533 0 1.535-1.127 2.523-2.687 2.523-1.506 0-2.546-.913-2.546-2.469 0-1.417.867-2.587 2.622-2.587zm-15.787.108v1.04h-.466l.954 2.03H32l.726-2.03h-.39v-1.04h2.232v1.04h-.499l-1.744 3.8h-1.008l-1.842-3.8h-.52v-1.04h2.492zm-3.89-.065c.232 0 .528.055.82.193l.145.076.216 1.695-1.062.118-.184-.826c-.14-.086-.249-.129-.379-.129-.286 0-.544.204-.59.596l-.006.123v2.018h.867v1.041H24.47v-1.04h.65V3.595h-.704V2.545h1.994v.923c.162-.558.487-.988 1.148-.988zm25.907 0c.232 0 .528.055.82.193l.144.076.217 1.695-1.062.118-.184-.826c-.14-.086-.25-.129-.38-.129-.285 0-.544.204-.588.596l-.007.123v2.018h.867v1.041h-2.915v-1.04h.65V3.595h-.704V2.545h1.993v.923c.163-.558.488-.988 1.149-.988zM37.267 5.282c-.499 0-.932.14-.932.665 0 .311.151.558.574.558.455 0 .929-.29 1.043-.948l.019-.147v-.064c-.228-.032-.477-.064-.704-.064zM47.213 3.5c-.715 0-1.16.537-1.16 1.449 0 .826.39 1.481 1.15 1.481.725 0 1.202-.58 1.202-1.503 0-.987-.53-1.427-1.192-1.427zm-36.048.043c-.711 0-1.127.566-1.176 1.22l-.005.132v.118c0 .795.411 1.396 1.148 1.396.64 0 1.138-.451 1.138-1.439 0-.923-.433-1.427-1.105-1.427zM4.122 1.568c-1.398 0-2.026.987-2.026 2.308 0 1.266.585 2.35 2.07 2.35 1.375 0 1.982-.934 1.982-2.297 0-1.481-.715-2.361-2.026-2.361zm17.477 1.867c-.53 0-.839.348-.951.874l-.024.135h1.83c.066-.483-.194-1.009-.855-1.009z"/>
</svg>
