<svg xmlns="http://www.w3.org/2000/svg" width="52" height="32" viewBox="0 0 52 32">
    <g fill="none">
        <path fill="#1A1A1A" d="M34.754 8.036c-.978.806-1.894 1.574-2.767 2.313-1.297.143-2.91.348-4.346.668-1.574.348-4.103 1.154-4.103 1.154l-5.643 3.29.248.287.243.277.382-.143s.81-.31 2.843.286c1.088.314 1.999 1.259 2.528 1.607-.39.386-1.545 2.733-1.545 2.733l-.315.248.243.281.248.277.315-.244s2.486-.7 2.944-1.015c.21.596.978 1.645 1.083 2.766.176 2.103-.277 2.842-.277 2.842l-.21.348.243.282.248.281 4.342-4.874s1.264-2.313 1.932-3.782c.578-1.35 1.081-2.73 1.507-4.135.873-.701 1.823-1.435 2.8-2.28C45.379 5.198 47.76.186 47.76.223c.033.106-5.434 1.575-13.005 7.813z" transform="translate(0 .5)"/>
        <path fill="#13A7C7" d="M12.428 6.32c-3.18-.043-6.25 1.165-8.55 3.362-4.761 4.605-4.887 12.198-.28 16.959 2.198 2.296 5.23 3.61 8.41 3.644 2.099.038 3.783-.84 5.433-2.032l1.541 1.86 2.734-8.341-8.73 1.087 1.755 2.098c-.753.579-1.679.888-2.628.878-4.158-.065-7.48-3.479-7.433-7.636.03-1.996.85-3.9 2.28-5.293 1.435-1.39 3.366-2.145 5.363-2.099 1.998.033 3.892.84 5.295 2.275l.487.558 3.926-2.242h.038l-1.23-1.364c-2.206-2.296-5.228-3.633-8.411-3.72v.005zm36.17 4.063c-1.162-1.21-2.573-2.154-4.136-2.767-.596.768-2.623 2.767-3.54 3.644h-.033c2.877.364 5.291 2.344 6.21 5.093.92 2.75.182 5.783-1.897 7.803-1.436 1.39-3.37 2.146-5.367 2.099-1.995-.03-3.897-.848-5.29-2.275l-1.752-1.789v.038s-.844 1.431-1.192 1.994c-.457.58-.95 1.13-1.474 1.65l1.226 1.26c2.2 2.296 5.234 3.61 8.415 3.643 3.18.042 6.25-1.166 8.55-3.362 4.754-4.635 4.882-12.235.285-17.027l-.004-.004z" transform="translate(0 .5)"/>
    </g>
</svg>
