<?xml version="1.0" encoding="UTF-8"?>
<svg clip-rule="evenodd" fill-rule="evenodd" stroke-linejoin="round" stroke-miterlimit="1.4142" viewBox="0 0 460 136" xmlns="http://www.w3.org/2000/svg">
<g fill="#383838" fill-rule="nonzero">
<path d="m54.763 29.858c0-15.093-10.144-27.547-27.299-27.547-16.825 0-27.464 12.041-27.464 27.711 0 14.928 9.6495 27.547 27.134 27.547 17.402 0 27.629-12.536 27.629-27.711zm-11.959 0.3299c0 10.474-4.6186 17.65-15.093 17.65-11.299 0-15.753-8.3299-15.753-18.062 0-10.144 4.7835-17.732 15.423-17.732 9.9794 0 15.423 6.7629 15.423 18.144zm57.65 7.0928c0-11.629-6.5155-18.474-15.918-18.474-6.7629 0-10.557 3.5464-12.536 7.8351v-26.639h-15.588v8.0825h4.9485v37.196c0 3.7114-0.57732 7.5877-1.4021 11.464h10.639c0.3299-1.8969 0.57732-3.7114 0.82474-5.6083 2.1443 3.9588 6.1031 6.433 11.959 6.433 11.217 0 17.072-9.3196 17.072-20.289zm-11.052 0.90722c0 7.5877-3.7938 11.052-8.6598 11.052-5.6083 0-8.7423-4.6186-8.7423-10.722v-0.90722c0-5.4433 3.2165-10.392 8.9897-10.392 5.1134 0 8.4124 3.8763 8.4124 10.969zm48.66 7.1753c0-14.351-21.691-8.9073-21.691-15.34 0-2.4742 2.2268-3.5464 4.9485-3.5464 1.732 0 3.8763 0.24742 5.8557 0.90722l0.6598 5.1959 8.2475-0.90722-0.90722-9.4846c-4.6186-2.3918-8.9897-3.3815-13.938-3.3815-7.5877 0-16.33 2.3918-16.33 11.546 0 14.763 22.433 9.1547 22.433 15.505 0 2.6392-3.4639 3.9588-7.5052 3.9588-1.1546 0-3.6289-0.082475-5.6083-0.74227v-4.6186l-8.2475-0.90722-1.4845 10.392c4.9485 2.5567 10.557 3.6289 15.918 3.6289 10.392 0 17.65-3.9588 17.65-12.206zm40.165-0.3299-8.9073-1.6495c-0.41237 2.2268-1.9794 5.7732-7.6701 5.7732-5.3608 0-8.165-3.0516-8.7423-8.8248h24.412c0.41237-1.8969 0.57732-3.7114 0.57732-5.3608-0.16495-9.6495-7.1753-16.165-17.485-16.165-11.794 0-18.639 8.5774-18.639 20.041 0 12.454 8.0825 18.722 19.134 18.722 10.722 0 16.825-5.9382 17.32-12.536zm-11.299-10.887h-13.938c0.6598-4.6186 3.0516-7.7526 7.4227-7.7526 5.0309 0 7.0103 4.0413 6.5155 7.7526zm38.846-15.093c-5.0309 0-7.5052 3.299-8.7423 7.5877v-7.0928h-15.175v8.0825h5.3608v21.113h-4.9485v8h22.186v-8h-6.598v-15.505c0-3.6289 2.1443-5.5258 4.5361-5.5258 0.9897 0 1.8144 0.3299 2.8866 0.9897l1.4021 6.3505 8.0825-0.90722-1.6495-13.031c-2.5567-1.4845-5.2784-2.0619-7.3402-2.0619zm53.361 8.4949v-8h-16.99v8h2.9691l-5.5258 15.588h-0.49485l-7.2578-15.588h3.5464v-8h-18.969v8h3.9588l14.021 29.196h7.6701l13.278-29.196h3.7938zm5.8557-5.3608-1.6495 9.6495 8.4949 0.90722 1.4021-5.2784c1.732-0.90722 3.4639-1.0722 5.6907-1.0722 6.0206 0 6.1031 4.5361 6.1031 8.3299v1.2371c-1.8969-0.24742-4.0413-0.3299-6.1031-0.3299-8.4949 0-17.32 2.1443-17.32 11.299 0 7.7526 6.1031 10.639 11.464 10.639 6.0206 0 9.8145-3.6289 11.959-7.4227v0.082474c0.49485 4.4536 3.2165 7.3402 8.165 7.3402 2.3093 0 4.701-0.6598 6.6804-1.732l-0.082475-5.6083c-0.57732 0.16495-1.0722 0.24742-1.567 0.24742-1.732 0-2.5567-0.74227-2.5567-2.8866v-16.165c0-8.4949-6.7629-12.619-14.763-12.619-6.1031 0-9.4021 0.74227-15.918 3.3815zm20.041 19.382c-0.49485 5.8557-4.3712 8.4124-8.0825 8.4124-3.2165 0-4.3712-1.8969-4.3712-4.2887 0-4.0413 3.299-5.1134 7.0928-5.1134 1.732 0 3.6289 0.24742 5.3608 0.49485v0.49485zm49.567 3.6289-7.7526-2.3918c-0.6598 5.5258-3.5464 5.8557-4.866 5.8557-2.6392 0-4.4536-1.3196-4.4536-4.866v-16.66h13.361v-7.5877h-13.361v-11.299h-10.639v11.299h-5.2784v7.5877h5.2784v18.474c0 7.6701 5.6083 11.959 13.856 11.959 7.7526 0 12.784-3.7938 13.856-12.371zm40.825-7.0103c0-10.474-6.433-19.464-19.876-19.464-13.361 0-19.959 8.9897-19.959 19.876 0 11.959 7.9176 18.969 19.382 18.969 11.876 0 20.454-7.5877 20.454-19.382zm-10.969-0.3299c0 7.0928-3.6289 11.546-9.1547 11.546-5.7732 0-8.7423-5.0309-8.7423-11.381 0-7.0103 3.3815-11.134 8.8248-11.134 5.0309 0 9.0722 3.3815 9.0722 10.969zm38.516-18.804c-5.0309 0-7.5052 3.299-8.7423 7.5877v-7.0928h-15.175v8.0825h5.3608v21.113h-4.9485v8h22.186v-8h-6.598v-15.505c0-3.6289 2.1443-5.5258 4.5361-5.5258 0.9897 0 1.8144 0.3299 2.8866 0.9897l1.4021 6.3505 8.0825-0.90722-1.6495-13.031c-2.5567-1.4845-5.2784-2.0619-7.3402-2.0619zm53.608 8.4949v-8h-16.99v8h3.2165l-5.6083 17.155h-0.49485l-7.5877-17.155h3.7114v-8h-18.969v8h3.7938l13.031 29.773-2.9691 8.7423h-5.9382v8.2475h20.536v-8.2475h-4.866l3.5464-9.3196 11.959-29.196h3.6289z"/>
</g>
<path d="m164.85 117.7c-0.006529 0.068552-0.00816 0.13874-0.00816 0.20729 0 1.3694 1.1262 2.4972 2.4972 2.4972 0.078343 0 0.15832-0.003264 0.23666-0.011425 2.4319 0 5.0271-1.7464 5.1903-5.7126-1.1393-0.1828-2.2899-0.28563-3.4439-0.31011-2.4319 0.048965-4.4721 0.73448-4.4721 3.3296zm-93.719 2.383c3.5418 0 5.8758-2.8563 5.8758-7.4101 0-4.8965-2.5952-6.9857-5.8268-6.9857-3.4928 0-5.6636 2.5952-5.6636 7.0836 0.016321 4.1294 1.9096 7.3121 5.6147 7.3121z" fill="#3d3d3d" fill-rule="nonzero"/>
<path d="m0 136h190.8v-54.547h-190.8v54.547zm159.95-33.378c3.1942-1.5 6.6903-2.2426 10.217-2.1708 5.1413 0 9.4666 2.6441 9.4666 8.1608v10.381c0 1.371 0.5223 1.8444 1.6322 1.8444 0.34276-0.006529 0.68388-0.06039 1.0119-0.16322v3.5908c-1.3188 0.71326-2.7926 1.0952-4.2926 1.1099-0.11425 0.008161-0.23014 0.011426-0.34439 0.011426-2.6409 0-4.8312-2.1365-4.8949-4.7774-1.4575 2.8987-4.4264 4.7447-7.6712 4.7659-3.4439 0-7.3611-1.8607-7.3611-6.8225 0-5.8758 5.6636-7.2468 11.115-7.2468 1.309-0.011425 2.618 0.058758 3.9172 0.21218v-0.91402c0-2.4319 0-5.3372-3.9172-5.3372-1.2568-0.086505-2.5152 0.15016-3.6561 0.68551l-0.76712 2.6931-5.4514-0.58758 0.99562-5.4351zm-1.4853-14.233-10.364 36.397h-6.7245l10.315-36.414 6.7735 0.016321zm-20.582 0h6.7245l-10.381 36.397h-6.7245l10.381-36.397zm-22.002 12.535h7.1489v8.5689h-7.1489v-8.5689zm0 15.293h7.1489v8.5689h-7.1489v-8.5689zm-27.486-15.293h20.957l0.52229 3.5908-13.237 15.081h7.8181l1.1099-3.705 5.4025 0.52229-1.6158 8.373h-20.794l-0.68551-3.5908 13.057-15.081h-7.3937l-1.0609 3.705-4.8965-0.52229 0.81608-8.373zm-17.105-0.47333c8.5689 0 12.747 5.7616 12.747 12.437 0 7.6222-5.5004 12.437-13.057 12.437-7.3611 0-12.437-4.5048-12.437-12.127-0.065287-6.9857 4.1784-12.747 12.747-12.747zm-59.966 19.162h3.1664v-13.498h-3.1664v-5.1903h10.005v3.5908c1.4445-2.6196 4.2583-4.2045 7.2468-4.0804 3.4422-0.21871 6.6348 1.8884 7.7854 5.1413 1.216-3.1631 4.3171-5.2262 7.7038-5.125 0.15342-0.009793 0.30685-0.013058 0.46027-0.013058 4.2355 0 7.7202 3.4847 7.7202 7.7202 0 0.1828-0.006529 0.36724-0.019586 0.55167v10.903h3.2643v5.1903h-9.9726v-13.449c0-4.1294-1.371-5.7126-4.0804-5.7126-3.2643 0-4.6027 2.334-4.6027 5.6636v8.3077h3.1827v5.1903h-10.022v-13.449c0-4.1294-1.371-5.7126-4.0804-5.7126-3.2643 0-4.6027 2.334-4.6027 5.6636v8.3077h4.5538v5.1903h-14.543v-5.1903z" fill="#3d3d3d" fill-rule="nonzero"/>
<path d="m148.09 124.79 10.332-36.414h-6.7245l-10.315 36.414h6.7082z" fill-rule="nonzero"/>
<path d="m148.09 124.79 10.332-36.414h-6.7245l-10.315 36.414h6.7082z" fill="#fff" fill-rule="nonzero"/>
<path d="m70.918 125.29c7.6222 0 13.057-4.8965 13.057-12.437 0-6.6756-4.1784-12.437-12.747-12.437-8.5689 0-12.813 5.7616-12.813 12.747 0.065287 7.6549 5.1577 12.127 12.502 12.127zm0.26115-19.586c3.2643 0 5.8268 2.1708 5.8268 6.9857 0 4.5538-2.334 7.4101-5.8758 7.4101-3.5418 0-5.6147-3.1827-5.6147-7.2958 0.016322-4.5211 2.1871-7.0999 5.68-7.0999h-0.016321z" fill-rule="nonzero"/>
<path d="m70.918 125.29c7.6222 0 13.057-4.8965 13.057-12.437 0-6.6756-4.1784-12.437-12.747-12.437-8.5689 0-12.813 5.7616-12.813 12.747 0.065287 7.6549 5.1577 12.127 12.502 12.127zm0.26115-19.586c3.2643 0 5.8268 2.1708 5.8268 6.9857 0 4.5538-2.334 7.4101-5.8758 7.4101-3.5418 0-5.6147-3.1827-5.6147-7.2958 0.016322-4.5211 2.1871-7.0999 5.68-7.0999h-0.016321z" fill="#fff" fill-rule="nonzero"/>
<path d="m25.886 119.61h-4.5538v-8.3077c0-3.2643 1.3221-5.6636 4.6027-5.6636 2.6931 0 4.0804 1.6322 4.0804 5.7126v13.449h10.005v-5.1903h-3.1827v-8.3077c0-3.2643 1.3221-5.6636 4.6027-5.6636 2.6931 0 4.0804 1.6322 4.0804 5.7126v13.449h9.9726v-5.1903h-3.1501v-10.903c0.013057-0.18444 0.019586-0.36887 0.019586-0.55167 0-4.2355-3.4847-7.7202-7.7202-7.7202-0.15342 0-0.30685 0.003265-0.46027 0.013058-3.421-0.13384-6.5662 1.9423-7.7855 5.1413-1.1507-3.2529-4.3432-5.36-7.7854-5.1413-2.9885-0.12404-5.8024 1.4608-7.2468 4.0804v-3.5908h-10.038v5.1903h3.1664v13.498h-3.1664v5.1903h14.559v-5.2066z" fill-rule="nonzero"/>
<path d="m25.886 119.61h-4.5538v-8.3077c0-3.2643 1.3221-5.6636 4.6027-5.6636 2.6931 0 4.0804 1.6322 4.0804 5.7126v13.449h10.005v-5.1903h-3.1827v-8.3077c0-3.2643 1.3221-5.6636 4.6027-5.6636 2.6931 0 4.0804 1.6322 4.0804 5.7126v13.449h9.9726v-5.1903h-3.1501v-10.903c0.013057-0.18444 0.019586-0.36887 0.019586-0.55167 0-4.2355-3.4847-7.7202-7.7202-7.7202-0.15342 0-0.30685 0.003265-0.46027 0.013058-3.421-0.13384-6.5662 1.9423-7.7855 5.1413-1.1507-3.2529-4.3432-5.36-7.7854-5.1413-2.9885-0.12404-5.8024 1.4608-7.2468 4.0804v-3.5908h-10.038v5.1903h3.1664v13.498h-3.1664v5.1903h14.559v-5.2066z" fill="#fff" fill-rule="nonzero"/>
<path d="m93.54 106.11h7.459l-13.123 15.081 0.68551 3.5908h20.859l1.469-8.3567-5.3862-0.5223-1.1099 3.705h-7.7365l13.237-15.081-0.53862-3.6071h-20.957l-0.83241 8.3567 4.9128 0.53862 1.0609-3.705z" fill-rule="nonzero"/>
<path d="m93.54 106.11h7.459l-13.123 15.081 0.68551 3.5908h20.859l1.469-8.3567-5.3862-0.5223-1.1099 3.705h-7.7365l13.237-15.081-0.53862-3.6071h-20.957l-0.83241 8.3567 4.9128 0.53862 1.0609-3.705z" fill="#fff" fill-rule="nonzero"/>
<path d="m115.9 116.22h7.1489v8.5689h-7.1489z"/>
<path d="m115.9 116.22h7.1489v8.5689h-7.1489z" fill="#fff"/>
<path d="m144.54 88.373h-6.7245l-10.315 36.414h6.7245l10.315-36.414z" fill-rule="nonzero"/>
<path d="m144.54 88.373h-6.7245l-10.315 36.414h6.7245l10.315-36.414z" fill="#fff" fill-rule="nonzero"/>
<path d="m115.9 100.92h7.1489v8.5689h-7.1489z"/>
<path d="m115.9 100.92h7.1489v8.5689h-7.1489z" fill="#fff"/>
<path d="m165.19 106c1.1409-0.53535 2.3993-0.77202 3.6561-0.68551 3.8682 0 3.9172 2.9053 3.9172 5.3372v0.79976c-1.2992-0.15342-2.6082-0.22361-3.9172-0.21218-5.4514 0-11.115 1.371-11.115 7.2468 0 4.8965 3.9172 6.8225 7.3611 6.8225 3.2448-0.021218 6.2137-1.8672 7.6712-4.7659 0.071815 2.6343 2.2589 4.761 4.8949 4.761 0.11425 0 0.23014-0.003264 0.34439-0.011425 1.5-0.01469 2.9738-0.39662 4.2926-1.1099v-3.5908c-0.32807 0.10283-0.66919 0.15669-1.0119 0.16322-1.1099 0-1.6322-0.47333-1.6322-1.8444v-10.364c0-5.4514-4.3416-8.1608-9.4666-8.1608-3.5385-0.05386-7.0412 0.71163-10.234 2.2361l-0.93034 5.4841 5.4514 0.58758 0.71816-2.6931zm2.383 14.396c-0.078344 0.00816-0.15832 0.011425-0.23666 0.011425-1.371 0-2.4972-1.1278-2.4972-2.4972 0-0.068551 0.001632-0.13873 0.008161-0.20729 0-2.5952 2.1218-3.2643 4.5538-3.2643 1.1539 0.024483 2.3046 0.12731 3.4439 0.31011-0.24482 4.0151-2.84 5.6473-5.2719 5.6473z" fill-rule="nonzero"/>
<path d="m165.19 106c1.1409-0.53535 2.3993-0.77202 3.6561-0.68551 3.8682 0 3.9172 2.9053 3.9172 5.3372v0.79976c-1.2992-0.15342-2.6082-0.22361-3.9172-0.21218-5.4514 0-11.115 1.371-11.115 7.2468 0 4.8965 3.9172 6.8225 7.3611 6.8225 3.2448-0.021218 6.2137-1.8672 7.6712-4.7659 0.071815 2.6343 2.2589 4.761 4.8949 4.761 0.11425 0 0.23014-0.003264 0.34439-0.011425 1.5-0.01469 2.9738-0.39662 4.2926-1.1099v-3.5908c-0.32807 0.10283-0.66919 0.15669-1.0119 0.16322-1.1099 0-1.6322-0.47333-1.6322-1.8444v-10.364c0-5.4514-4.3416-8.1608-9.4666-8.1608-3.5385-0.05386-7.0412 0.71163-10.234 2.2361l-0.93034 5.4841 5.4514 0.58758 0.71816-2.6931zm2.383 14.396c-0.078344 0.00816-0.15832 0.011425-0.23666 0.011425-1.371 0-2.4972-1.1278-2.4972-2.4972 0-0.068551 0.001632-0.13873 0.008161-0.20729 0-2.5952 2.1218-3.2643 4.5538-3.2643 1.1539 0.024483 2.3046 0.12731 3.4439 0.31011-0.24482 4.0151-2.84 5.6473-5.2719 5.6473z" fill="#fff" fill-rule="nonzero"/>
</svg>
