<svg viewBox="0 0 934 295" xmlns="http://www.w3.org/2000/svg" xmlns:xlink="http://www.w3.org/1999/xlink"><script xmlns=""/><defs><path id="a" d="M21.884 22.339V.696H.468v21.643h21.416z"/><path id="c" d="M0 294.111h933.884V1H0z"/></defs><g fill="none" fill-rule="evenodd"><path d="M394.178 175.538c27.686 0 50.21-22.523 50.21-50.208s-22.524-50.208-50.21-50.208c-27.685 0-50.208 22.523-50.208 50.208s22.523 50.208 50.208 50.208zm0-120.714c38.878 0 70.15 31.631 70.507 70.506.28 30.552-20.653 58.757-49.208 66.766-5.494 1.541-8.23 1.652-8.23 1.652s9.802 3.659 31.177 7.347c-2.498 5.267-10.344 12.957-14.492 15.236-29.01-4.828-54.138-15.247-71.66-30.36-18.71-16.139-28.6-37.108-28.6-60.641 0-38.877 31.63-70.506 70.506-70.506z" fill="#262626"/><g transform="translate(912 165.111)"><mask id="b" fill="#fff"><use xlink:href="#a"/></mask><path d="M9.574 7.055v3.479h2.106c.609 0 1.089-.162 1.44-.481.35-.32.526-.74.526-1.26 0-1.157-.655-1.738-1.966-1.738H9.574zm6.178 1.65c0 .884-.238 1.64-.71 2.262-.473.626-1.12 1.063-1.944 1.307l3.067 4.805h-2.381l-2.792-4.668H9.574v4.668H7.56V5.178h4.393c1.13 0 2.044.323 2.747.963.7.64 1.052 1.495 1.052 2.564zM5.044 17.812c1.586 1.615 3.63 2.424 6.133 2.424 2.5 0 4.543-.81 6.13-2.424 1.587-1.62 2.38-3.724 2.38-6.316 0-2.594-.793-4.692-2.38-6.294-1.587-1.602-3.63-2.403-6.13-2.403-2.503 0-4.547.8-6.133 2.403-1.587 1.602-2.38 3.7-2.38 6.294 0 2.592.793 4.697 2.38 6.316zM3.488 3.717C5.5 1.702 8.063.696 11.177.696c3.11 0 5.673 1.006 7.688 3.02 2.013 2.012 3.02 4.608 3.02 7.78 0 3.202-1.007 5.81-3.02 7.825-2.015 2.014-4.577 3.018-7.688 3.018-3.114 0-5.676-1.004-7.69-3.018-2.014-2.015-3.02-4.623-3.02-7.825 0-3.172 1.006-5.768 3.02-7.78z" fill="#262626" mask="url(#b)"/></g><path d="M784.086 157.725l-23.813-63.188h-21.219l34.746 88.2s-15.37 36.538-15.365 36.536c10.112 0 21.174-.714 25.504-11.37 10.151-24.993 45.504-113.366 45.504-113.366H808.22l-24.133 63.188zM704.494 189.246s19.693-.365 19.693-13.729V55.484h-19.693v133.762zM634.144 170.766c-11.907 0-29.72-7.947-29.995-29.84v-.156c0-17.288 12.754-30.325 29.667-30.325 12.633 0 22.897 6.596 27.486 17.712 1.805 3.756 2.672 8.16 2.51 12.731-.166 4.644-1.205 9.078-3.022 12.87-4.638 10.65-14.6 17.007-26.646 17.007zm29.502-63.79c-5.484-7.648-16.197-15.073-31.971-15.073-26.92 0-47.221 20.938-47.221 48.701 0 12.977 4.437 25.036 12.495 33.956 8.715 9.648 20.723 14.749 34.726 14.749 13.567 0 25.184-5.535 31.97-15.014v14.95s19.696-.311 19.696-13.718v-80.99h-19.695v12.44zM548.568 145.874c0 15.904-8.26 24.745-23.244 24.892-15.198 0-22.587-8.627-22.587-26.373V94.537h-19.694v53.807c0 7.766 1.308 18.842 7.547 27.506 6.375 8.853 16.453 13.38 29.946 13.459.184.002.369.003.553.003 16.137 0 24.448-7.316 28.467-13.001v12.935s18.707-.32 18.707-13.061V94.537h-19.695v51.337zM876.662 131.965c-10.235-4.424-17.677-8.25-17.546-14.185.087-3.926 5.26-7.687 10.638-7.502 5.755.2 10.023 4.168 12.404 7.344 0 0 10.76-9.197 12.063-10.182-5.575-9.228-15.043-14.423-25.663-14.658-15.144-.334-27.734 11.547-28.063 26.483-.284 12.936 7.293 18.276 17.23 23.912l16.357 9.196c3.774 2.639 5.554 4.61 5.465 8.669-.14 6.362-5.46 10.486-12.353 10.894-5.068.299-9.231-2.632-13.176-6.76-7.677-8.034-19.46-4.172-23.066-3.011 7.497 17.24 21.68 27.279 35.85 27.592 17.843.393 32.117-12.777 32.497-29.983.182-8.282-3.448-18.57-22.637-27.81" fill="#262626"/><path d="M123.074 1c80.157 0 120.46 42.889 120.46 42.889s4.609 31.745 1.668 95.666c-4.443 96.56-122.1 154.55-122.11 154.556-.01.005-117.666-57.996-122.11-154.556-2.942-63.921 1.667-95.666 1.667-95.666S42.916.999 123.074.999" fill="#ED2E26"/><path d="M62.924 127.93c0-34.142 26.991-61.918 60.167-61.918 33.204 0 60.217 27.013 60.217 60.217 0 26.507-22.786 48.315-40.348 59.522 6.813 3.887 21.85 7.969 36.245 9.288 21.022-16.27 33.843-41.418 33.843-68.81 0-49.603-40.354-89.957-89.957-89.957-49.602 0-89.956 40.354-89.956 89.957 0 29.957 12.474 56.57 36.072 76.964 22.063 19.065 54.336 31.79 91.081 37.816 7.961-4.4 21.576-17.387 26.682-24.99-30.689-3.947-59.733-11.431-79.203-21.645-29.755-15.608-44.843-37.964-44.843-66.444" fill="#FFF"/><path d="M516.37 250.302c-5.185 0-9.031 4.433-9.031 9.492 0 4.976 3.97 9.239 9.03 9.239 5.269 0 9.03-4.347 9.03-9.49 0-4.975-4.011-9.241-9.03-9.241m-.042 21.366c-6.438 0-11.916-5.393-11.916-11.832 0-6.607 5.27-12.168 11.916-12.168 6.524 0 12 5.478 12 12 0 6.565-5.436 12-12 12M550.912 271.124v-12.585c0-2.175-.545-4.725-2.175-6.271a7.316 7.316 0 00-4.974-1.966c-1.84 0-3.64.71-4.976 1.966-1.59 1.505-2.134 3.97-2.134 6.062v12.794h-2.927v-22.871h2.928v2.928h.083c1.505-2.342 4.308-3.513 7.026-3.513 6.563 0 10.075 4.558 10.075 10.87v12.586h-2.926zM565.707 250.888v20.236h-2.927v-20.236h-4.807v-2.635h4.807v-8.07h2.927v8.07h5.478v2.635z" fill="#262626"/><mask id="d" fill="#fff"><use xlink:href="#c"/></mask><path d="M576.127 271.124h2.927v-22.871h-2.927v22.871zm0-26.746h2.927v-4.195h-2.927v4.195zM603.72 271.124v-12.585c0-2.175-.543-4.725-2.173-6.271a7.316 7.316 0 00-4.975-1.966c-1.84 0-3.639.71-4.976 1.966-1.59 1.505-2.133 3.97-2.133 6.062v12.794h-2.927v-22.871h2.927v2.928h.084c1.505-2.342 4.307-3.513 7.025-3.513 6.563 0 10.076 4.558 10.076 10.87v12.586h-2.928zM630.027 271.124v-3.554h-.084c-1.337 2.802-4.306 4.098-7.316 4.098-2.968 0-5.98-1.045-7.861-3.43-1.631-2.048-2.007-4.807-2.007-7.358v-12.627h2.927v12.586c0 4.724 1.715 8.194 6.94 8.194 1.923 0 3.429-.501 4.85-1.84 2.007-1.923 2.384-4.18 2.384-6.856v-12.084h2.927v22.87h-2.76zM650.183 250.302c-5.185 0-9.031 4.433-9.031 9.492 0 4.976 3.971 9.239 9.031 9.239 5.269 0 9.031-4.347 9.031-9.49 0-4.975-4.013-9.241-9.031-9.241m-.042 21.366c-6.438 0-11.916-5.393-11.916-11.832 0-6.607 5.269-12.168 11.916-12.168 6.523 0 12 5.478 12 12 0 6.565-5.436 12-12 12M684.487 271.124v-3.554h-.084c-1.337 2.802-4.306 4.098-7.316 4.098-2.968 0-5.98-1.045-7.861-3.43-1.631-2.048-2.007-4.807-2.007-7.358v-12.627h2.927v12.586c0 4.724 1.715 8.194 6.94 8.194 1.923 0 3.429-.501 4.85-1.84 2.007-1.923 2.384-4.18 2.384-6.856v-12.084h2.927v22.87h-2.76zM822.803 271.124v-3.554h-.083c-1.338 2.802-4.307 4.098-7.316 4.098-2.969 0-5.98-1.045-7.86-3.43-1.632-2.048-2.009-4.807-2.009-7.358v-12.627h2.927v12.586c0 4.724 1.715 8.194 6.942 8.194 1.922 0 3.427-.501 4.85-1.84 2.006-1.923 2.382-4.18 2.382-6.856v-12.084h2.927v22.87h-2.76zM849.58 271.124h2.927v-22.871h-2.927v22.871zm0-26.746h2.927v-4.195h-2.927v4.195zM866.237 250.888v20.236h-2.927v-20.236h-4.808v-2.635h4.808v-8.07h2.927v8.07h5.478v2.635zM882.656 279.152h-3.052l3.973-8.78-8.907-22.119h3.093l7.276 18.23 7.777-18.23h3.094zM759.372 252.39c1.42-1.42 3.368-2.13 5.841-2.13 1.221 0 2.298.197 3.23.595a6.861 6.861 0 012.36 1.626 7.299 7.299 0 011.487 2.429c.308.816.484 1.708.57 2.655h-15.955c.323-2.107 1.132-3.84 2.467-5.175zm13.286 13.562a12.392 12.392 0 01-2.772 2.057c-1.253.688-2.749 1.03-4.49 1.03-1.19 0-2.306-.19-3.344-.572a8.106 8.106 0 01-2.725-1.649c-.779-.717-1.405-1.603-1.879-2.656-.472-1.053-.725-2.267-.756-3.642l-.005-.32h19.29v-.825c0-1.589-.22-3.092-.664-4.512-.443-1.42-1.114-2.665-2.015-3.734-.9-1.069-2.03-1.915-3.39-2.541-1.359-.627-2.939-.94-4.74-.94-1.712 0-3.26.313-4.65.94a10.532 10.532 0 00-3.55 2.565c-.978 1.084-1.734 2.365-2.269 3.847-.534 1.481-.802 3.077-.802 4.786 0 1.803.284 3.437.85 4.902.564 1.466 1.357 2.712 2.381 3.733 1.023 1.024 2.244 1.819 3.664 2.382 1.421.565 3.001.849 4.741.849 2.108 0 3.895-.406 5.36-1.214 1.432-.791 2.627-1.678 3.593-2.657l-1.828-1.83zM701.813 257.865c-4.052-.952-5.746-1.673-5.746-3.68 0-2.092 2.116-3.499 5.266-3.499 2.569 0 4.899.921 6.42 2.522l2.109-2.109c-2.083-2.157-5.172-3.398-8.53-3.398-4.858 0-8.251 2.666-8.251 6.484 0 4.698 4.653 5.79 8.05 6.586 4.169.98 6.03 1.805 6.03 4.103 0 2.397-2.118 3.828-5.664 3.828-2.843 0-5.422-1.027-7.118-2.816l-2.108 2.11c2.258 2.344 5.595 3.691 9.226 3.691 5.974 0 8.649-3.422 8.649-6.813 0-5.052-5.015-6.23-8.333-7.009M498.867 265.09c-2.43 2.34-5.48 3.81-9.007 3.81-6.983 0-13.046-6.187-13.046-13.128 0-7.024 5.896-13.254 13.004-13.254 3.42 0 6.719 1.363 9.127 3.73l2.078-2.078a16.227 16.227 0 00-11.163-4.454c-8.99 0-16.14 6.983-16.14 16.014 0 8.948 7.317 15.97 16.18 15.97 4.196 0 8.12-1.691 11.072-4.504l-2.105-2.105zM798.938 266.44c-1.696 1.71-4.054 2.593-6.575 2.593-5.311 0-9.45-4.097-9.45-9.407 0-5.268 4.223-9.325 9.45-9.325 2.562 0 4.914 1.03 6.6 2.806l1.988-1.987c-2.263-2.207-5.364-3.452-8.672-3.452-6.69 0-12.292 5.31-12.292 12.042 0 6.814 5.56 11.958 12.292 11.958 3.534 0 6.36-1.192 8.548-3.34l-1.89-1.888zM738.823 253.728c-5.062-1.188-8.382-2.223-8.382-5.642 0-3.232 3.153-5.405 7.847-5.405 3.727 0 7.116 1.35 9.326 3.698l2.108-2.107c-2.773-2.907-6.92-4.577-11.434-4.577-6.378 0-10.833 3.451-10.833 8.391 0 6.041 6.176 7.491 10.686 8.548 5.136 1.206 8.772 2.36 8.772 6.226 0 3.614-3.218 5.861-8.398 5.861-4.132 0-7.892-1.516-10.34-4.157l-2.11 2.108c3.015 3.198 7.53 5.035 12.45 5.035 6.916 0 11.384-3.473 11.384-8.847 0-6.532-6.401-8.034-11.076-9.132M835.088 248.253h-2.927v22.87h2.927V258.33c0-2.091.543-4.462 2.133-5.968 1.337-1.255 3.136-1.834 4.975-1.834.38 0 .898.038 1.271.097v-2.907c-.366-.031-.883-.05-1.27-.05-2.718 0-5.6 1.302-7.106 3.644l-.003-3.06z" fill="#262626" mask="url(#d)"/></g></svg>