<svg fill="#fff" fill-rule="evenodd" stroke="#000" stroke-linecap="round" stroke-linejoin="round" viewBox="0 0 102 32" xmlns="http://www.w3.org/2000/svg" xmlns:xlink="http://www.w3.org/1999/xlink"><use x=".5" y=".5" xlink:href="#a"/><symbol id="a" overflow="visible"><g stroke="none"><g fill="#000"><path d="M38.2 13.163c0-2.85 2.112-4.838 5.956-4.838 2.342 0 4.26.736 5.3 1.456.276.175.383.52.255.817l-.846 1.74c-.157.284-.555.248-.758.145-.74-.37-1.953-.992-3.054-1.107-.274-.03-.56-.044-.85-.038-.983.02-1.802.357-2.092 1.093-.06.146-.1.292-.093.438-.025.97 1.346 1.32 3 1.6 3.095.52 5.434 1.413 5.434 4.543 0 2.658-2.163 5.06-6.363 4.987-2.777-.055-4.747-.976-5.803-1.872-.036-.03-.438-.433-.223-.916.247-.623.662-1.338 1-1.714.182-.244.662-.283.9-.13.87.532 2.3 1.383 3.953 1.438l.386.002c1.485-.035 2.384-.588 2.364-1.52-.016-.822-1.194-1.3-3.054-1.65-3-.554-5.396-1.522-5.396-4.477m27.163 4.056c-2.1.028-4.042.594-4.098 2.214 0 1.284 1.06 1.916 2.55 1.834 1.428-.135 2.517-.744 2.997-1.55.178-.3.204-1.42.193-1.898-.003-.1-.207-.295-.298-.33-.448-.185-.78-.243-1.345-.265m-7.008-6.528c.986-.867 2.927-2.216 6.058-2.145 4.1.084 6.283 1.98 6.485 6.5.083 1.87-.055 7.08-.1 8.38.016.1-.012.18-.077.244s-.157.093-.247.077l-2.96.006c-.363-.017-.405-.194-.4-.38l-.022-.773c-.004-.155-.153-.15-.2-.125-.965 1-2.545 1.5-4.225 1.5-2.553 0-5.098-1.476-5.1-4.4.008-2.993 2.167-4.47 4.54-4.818 1.52-.223 3.232-.025 4.528.482.083.032.252-.015.255-.13.005-.38-.013-1.108-.1-1.453-.2-.878-.935-1.585-2.5-1.776a5.04 5.04 0 00-.971-.025c-1.245.096-2.74 1.05-3.362 1.407-.146.084-.374.023-.448-.07-.36-.46-1.273-1.804-1.343-2.02s.03-.394.157-.507zm13.874 5.558c-.025-4.175 2.935-7.697 7.74-7.73 2.998-.02 5.177 1.317 5.56 1.947.076.148.038.27-.017.42-.4.745-.84 1.454-1.352 2.12-.195.245-.407.035-.65-.125-.68-.447-1.976-.992-3.25-.992-2.3 0-4.034 1.558-4.014 4.424.018 2.752 1.654 4.26 4.02 4.315 1.23.03 2.424-.665 3.054-1.234.2-.172.4-.088.64.1.452.454 1.1 1.154 1.46 1.626.236.268.06.53-.025.636-.975 1.213-2.858 2.232-5.35 2.246-5.218.037-7.806-3.57-7.83-7.76m24.905 7.575c.244-.018 2.858-.373 3.66-.553.198-.045.27-.2.16-.373l-2.86-4.215-2.717-3.423c-.094-.125-.1-.25.013-.35l4.97-4.898c.448-.475.178-.68-.2-.793-.736-.215-1.924-.484-2.6-.625-.285-.06-.63-.037-.9.213L90.92 14.4c-.2.188-.3.146-.302-.123L90.5 2.263c-.005-.188-.234-.33-.363-.335l-2.997-.006c-.2.034-.34.177-.378.363-.153 2.26.064 18.85.155 21.172.002.162.13.296.295.308.658.037 2.285.035 3.047.02.374 0 .42-.26.42-.26l.056-4.453s.038-.198.102-.25l1.326-1.366c.076-.073.196-.067.272.035.376.498 1.447 2.116 2.44 3.562l1.824 2.6a.44.44 0 00.42.196zM52.7 23.81l2.746.005a.39.39 0 00.28-.096c.078-.068.12-.162.126-.263.165-3.254.094-18.748-.01-21.193-.01-.213-.102-.3-.248-.3-.662-.088-2.548-.066-3.152.088-.1.023-.2.12-.192.23-.148 6.306-.048 20.845-.017 21.12a.42.42 0 00.467.419z"/></g><path d="M8 19.138C8 17.398 9.338 16 11 16s3 1.4 3 3.138v7.725C14 28.6 12.662 30 11 30s-3-1.4-3-3.138z" fill="#e01e5a"/><path d="M19.138 22C17.4 22 16 20.662 16 19s1.4-3 3.138-3h7.724C28.6 16 30 17.338 30 19s-1.4 3-3.138 3z" fill="#ecb22d"/><path d="M16 3.138C16 1.4 17.338 0 19 0s3 1.4 3 3.138v7.725C22 12.6 20.662 14 19 14s-3-1.4-3-3.138z" fill="#2fb67c"/><path d="M3.138 14C1.398 14 0 12.662 0 11s1.4-3 3.138-3h7.724C12.602 8 14 9.338 14 11s-1.4 3-3.138 3z" fill="#36c5f1"/><path d="M16 27c0 1.662 1.338 3 3 3s3-1.338 3-3-1.338-3-3-3h-3z" fill="#ecb22d"/><path d="M27 14h-3v-3c0-1.662 1.338-3 3-3s3 1.338 3 3-1.338 3-3 3z" fill="#2fb67c"/><path d="M3 16h3v3c0 1.662-1.338 3-3 3s-3-1.338-3-3 1.338-3 3-3z" fill="#e01e5a"/><path d="M14 3v3h-3C9.338 6 8 4.662 8 3s1.338-3 3-3 3 1.338 3 3z" fill="#36c5f1"/></g></symbol></svg>