<svg xmlns="http://www.w3.org/2000/svg" width="42" height="253" viewBox="0 0 42 253">
    <path fill="#267C86" fill-rule="evenodd" d="M35.387 133.872l-.012-5.505c0-.548-.448-.99-1-.99-17.576 0-31.875-14.12-31.875-31.473 0-15.373 11.146-28.42 26.501-31.022 3.689-.625 6.422-3.782 6.499-7.524V38.012l6-11.915h-6V1.493c0-.548-.448-.993-1-.993s-1 .445-1 .993v24.604h-6l6 11.915v19.325c-.057 2.772-2.091 5.121-4.835 5.587C12.345 65.69.5 79.56.5 95.904c0 18.12 14.659 32.92 32.877 33.443l.01 4.53c.025 12.015.063 63.813.113 117.631 0 .55.449.992 1.001.992.552 0 .999-.445.999-.993-.05-53.82-.088-105.618-.113-117.635z"/>
</svg>
