<svg xmlns="http://www.w3.org/2000/svg" width="42" height="358" viewBox="0 0 42 358">
    <path fill="#267C86" fill-rule="evenodd" d="M35.456 339.412L41.5 327.5h-6.057c-.023-21.261-.041-15.424-.056-22.458l-.012-5.544c0-.552-.448-.998-1-.998-17.576 0-31.875-14.219-31.875-31.697 0-15.483 11.146-28.622 26.501-31.243 3.689-.63 6.422-3.808 6.499-7.578V1.5c0-.552-.448-1-1-1s-1 .448-1 1v226.462c-.057 2.791-2.091 5.158-4.835 5.626C12.345 236.374.5 250.342.5 266.803c0 18.248 14.659 33.155 32.877 33.682l.01 4.561c.015 7.034.033 1.195.056 22.454H27.5l5.956 11.912c.014 12.928.028-.047.044 17.089 0 .553.449.999 1.001.999.552 0 .999-.448.999-1-.016-17.057-.03-4.2-.044-17.088z"/>
</svg>
