<svg xmlns="http://www.w3.org/2000/svg" xmlns:xlink="http://www.w3.org/1999/xlink" width="286" height="41" viewBox="0 0 286 41">
    <defs>
        <path id="prefix__a" d="M0 0L286 0 286 41 0 41z"/>
    </defs>
    <g fill="none" fill-rule="evenodd">
        <mask id="prefix__b" fill="#fff">
            <use xlink:href="#prefix__a"/>
        </mask>
        <path fill="#267C86" d="M285 6h-.001c-17.056.016-32.024.03-44.912.044L228 0v6.057c-21.261.023-35.424.041-42.458.056l-5.544.012c-.552 0-.998.448-.998 1C179 24.701 164.781 39 147.303 39c-15.483 0-28.622-11.146-31.243-26.501-.63-3.689-3.808-6.422-7.578-6.499H1c-.552 0-1 .448-1 1s.448 1 1 1h107.462c2.791.057 5.158 2.091 5.626 4.835C116.874 29.155 130.842 41 147.303 41c18.248 0 33.155-14.659 33.682-32.877l4.561-.01c7.034-.015 21.195-.033 42.454-.056V14l11.912-5.956c12.928-.014 27.953-.028 45.089-.044.553 0 .999-.449.999-1.001 0-.552-.448-.999-1-.999" mask="url(#prefix__b)"/>
    </g>
</svg>
