<svg xmlns="http://www.w3.org/2000/svg" xmlns:xlink="http://www.w3.org/1999/xlink" width="286" height="41" viewBox="0 0 286 41">
    <defs>
        <path id="prefix__a" d="M0 0L286 0 286 41 0 41z"/>
    </defs>
    <g fill="none" fill-rule="evenodd">
        <mask id="prefix__b" fill="#fff">
            <use xlink:href="#prefix__a"/>
        </mask>
        <path fill="#267C86" d="M285 6h-.002c-54.202.05-87.355.088-99.456.113l-5.544.012c-.552 0-.998.448-.998 1C179 24.7 164.78 39 147.304 39c-15.484 0-28.624-11.145-31.245-26.5-.629-3.69-3.808-6.423-7.578-6.5H41V0L29 6H1c-.552 0-1 .448-1 1s.448 1 1 1h28l12 6V8h67.462c2.791.057 5.157 2.09 5.626 4.835C116.874 29.155 130.844 41 147.304 41c18.248 0 33.154-14.66 33.68-32.877l4.561-.01C197.648 8.088 230.8 8.05 285.002 8c.553 0 .999-.45.999-1.001 0-.552-.449-1-1-1" mask="url(#prefix__b)"/>
    </g>
</svg>
