<svg xmlns="http://www.w3.org/2000/svg" width="42" height="249" viewBox="0 0 42 249">
    <path fill="#267C86" fill-rule="evenodd" d="M35.456 231.087L41.5 219h-6.057c-.023-21.261-.041-15.424-.056-22.458l-.012-5.544c0-.552-.448-.998-1-.998C16.799 190 2.5 175.781 2.5 158.303c0-15.483 11.146-28.622 26.501-31.243 3.689-.63 6.422-3.808 6.499-7.578V1.202c0-.552-.448-1-1-1s-1 .448-1 1v118.26c-.057 2.791-2.091 5.158-4.835 5.626C12.345 127.874.5 141.842.5 158.303c0 18.248 14.659 33.155 32.877 33.682l.01 4.561c.015 7.034.033 1.195.056 22.454H27.5l5.956 11.912c.014 12.928.028-.215.044 16.921 0 .553.449 1 1.001 1 .552 0 .999-.449.999-1-.016-17.058-.03-3.858-.044-16.746z"/>
</svg>
