<?xml version="1.0" standalone="no"?>
<!DOCTYPE svg PUBLIC "-//W3C//DTD SVG 20010904//EN"
 "http://www.w3.org/TR/2001/REC-SVG-20010904/DTD/svg10.dtd">
<svg version="1.0" xmlns="http://www.w3.org/2000/svg"
 width="1136.000000pt" height="1136.000000pt" viewBox="0 0 1136.000000 1136.000000"
 preserveAspectRatio="xMidYMid meet">
<metadata>
Created by potrace 1.11, written by Peter Selinger 2001-2013
</metadata>
<g transform="translate(0.000000,1136.000000) scale(0.100000,-0.100000)"
fill="#000000" stroke="none">
<path d="M2763 10365 c-106 -107 -193 -199 -193 -205 0 -13 376 -390 390 -390
14 0 390 377 390 391 0 9 -385 400 -392 398 -2 0 -90 -88 -195 -194z"/>
<path d="M8037 10360 l-197 -200 200 -200 200 -200 98 97 c53 54 143 144 200
201 l102 102 -200 200 c-110 110 -201 200 -203 199 -1 0 -91 -90 -200 -199z"/>
<path d="M1493 9102 c-94 -97 -181 -188 -192 -200 l-20 -24 128 -131 c71 -73
157 -162 193 -199 l65 -68 61 63 c34 34 110 113 170 175 l108 112 313 0 313 0
114 -117 c63 -65 140 -144 171 -175 l57 -57 98 102 c55 56 139 143 189 194 49
51 89 98 89 105 0 7 -19 32 -43 55 -23 22 -105 107 -182 187 -77 80 -145 146
-151 146 -10 0 -42 -31 -263 -257 l-80 -83 -311 0 -311 0 -72 74 c-40 40 -117
119 -171 175 -54 55 -99 101 -100 101 -1 0 -78 -80 -173 -178z"/>
<path d="M4200 9081 l-201 -200 195 -195 c108 -108 200 -196 206 -196 6 0 98
88 205 195 l195 195 -200 201 -199 200 -201 -200z"/>
<path d="M6752 9086 l-192 -194 187 -191 c103 -105 192 -191 197 -191 5 0 82
74 172 165 90 91 169 165 176 166 71 5 619 2 620 -3 7 -18 321 -329 330 -326
5 2 84 77 174 168 l164 164 112 -2 c62 -2 124 -2 138 -1 14 0 68 0 120 0 52
-1 106 -1 120 0 14 1 49 1 78 1 l52 -1 144 -145 143 -145 -1 -308 -2 -308
-167 -167 -167 -167 168 -171 169 -170 -1 -306 0 -305 -168 -169 -167 -169
192 -196 192 -196 193 196 193 195 -168 170 -168 170 0 305 0 305 168 170 167
170 -167 170 -168 170 0 305 0 306 168 170 168 171 -193 194 -193 195 -168
-171 -168 -170 -311 0 -311 0 -169 170 -168 171 -168 -171 -168 -170 -311 0
-311 0 -169 171 -168 170 -193 -195z"/>
<path d="M294 7899 c-58 -57 -148 -146 -200 -197 l-94 -93 175 -171 175 -171
0 -306 0 -306 -175 -171 -176 -171 111 -109 c62 -60 152 -148 201 -197 l89
-87 62 61 c35 33 125 121 200 196 l138 135 -175 171 -175 172 0 306 0 305 175
171 174 172 -145 143 c-81 79 -170 167 -200 197 l-54 53 -106 -103z"/>
<path d="M1483 7805 c-106 -106 -193 -198 -193 -204 0 -6 88 -99 195 -206
l195 -195 195 195 c107 107 195 199 195 205 0 9 -386 401 -393 399 -1 0 -89
-87 -194 -194z"/>
<path d="M2760 7801 l-201 -200 201 -201 200 -200 200 200 201 201 -98 97
c-54 53 -144 144 -200 200 l-102 103 -201 -200z"/>
<path d="M4197 7811 c-103 -104 -187 -193 -187 -199 0 -6 74 -85 164 -176
l164 -165 0 -301 c0 -300 0 -301 -23 -329 -13 -15 -89 -93 -169 -174 l-146
-147 169 -170 168 -169 1 -305 0 -304 -169 -172 -169 -171 188 -190 c104 -104
193 -189 198 -189 13 0 379 367 379 379 0 6 -74 86 -165 178 l-166 168 1 302
0 302 172 173 172 172 -27 18 c-15 10 -25 18 -22 18 3 0 -62 69 -145 153
l-151 152 1 304 1 303 150 147 149 148 45 -3 c25 -1 50 -3 55 -4 6 -1 12 -1
15 0 15 6 80 4 80 -2 0 -4 7 -5 15 -2 24 9 125 10 125 1 0 -5 5 -5 12 -1 16
10 88 11 88 2 0 -4 8 -4 17 -1 34 13 157 8 176 -7 10 -8 86 -84 170 -167 83
-84 155 -153 160 -153 5 0 94 86 198 191 l189 190 -194 195 -193 196 -170
-171 -170 -171 -314 0 -314 0 -151 153 c-83 83 -159 160 -170 169 -19 16 -26
11 -207 -171z"/>
<path d="M6763 7805 c-106 -107 -193 -199 -193 -205 0 -13 376 -390 390 -390
14 0 390 377 390 390 0 9 -386 401 -393 399 -1 0 -89 -87 -194 -194z"/>
<path d="M8038 7799 l-198 -199 200 -200 200 -200 98 97 c53 54 143 144 200
201 l102 102 -200 200 c-110 110 -201 200 -202 200 -2 -1 -92 -91 -200 -201z"/>
<path d="M10757 7800 l-198 -200 201 -200 200 -200 200 200 200 200 -199 200
c-110 110 -201 200 -203 199 -2 0 -92 -90 -201 -199z"/>
<path d="M1480 6521 l-200 -201 200 -200 200 -200 102 103 c57 56 147 146 201
200 l97 97 -200 201 -200 200 -200 -200z"/>
<path d="M2760 6521 l-201 -200 201 -200 200 -201 102 102 c57 57 147 147 201
200 l97 98 -200 200 -199 201 -201 -200z"/>
<path d="M5480 6521 l-200 -200 200 -200 200 -201 195 195 c107 107 195 199
195 205 0 6 -88 98 -195 206 l-195 195 -200 -200z"/>
<path d="M6757 6520 l-197 -199 195 -196 c107 -107 199 -195 205 -195 6 0 98
88 206 195 l195 196 -201 199 c-110 110 -202 200 -203 199 -1 0 -91 -90 -200
-199z"/>
<path d="M8037 6520 l-198 -199 201 -201 200 -200 98 98 c53 53 143 143 200
200 l102 102 -200 200 c-110 110 -201 200 -203 199 -1 0 -91 -90 -200 -199z"/>
<path d="M10760 6521 l-201 -200 201 -201 200 -200 200 200 200 200 -200 200
-200 201 -200 -200z"/>
<path d="M2760 5241 l-201 -200 195 -196 c108 -107 200 -195 206 -195 6 0 98
88 205 195 l195 195 -200 200 -200 201 -200 -200z"/>
<path d="M5480 5241 l-201 -201 201 -200 200 -200 98 98 c53 53 143 143 199
199 l103 103 -200 200 -200 201 -200 -200z"/>
<path d="M6886 5369 c-38 -38 -70 -69 -71 -69 -1 0 -59 -56 -128 -125 l-126
-125 112 -109 c62 -60 140 -136 175 -169 l62 -60 0 -305 0 -306 -97 -94 c-54
-53 -131 -127 -170 -165 -40 -39 -73 -75 -73 -81 0 -9 102 -111 298 -300 l42
-41 0 -304 0 -305 -111 -108 c-61 -59 -140 -136 -175 -171 l-63 -63 63 -62
c252 -246 327 -317 337 -317 7 0 31 19 54 43 23 23 110 109 193 190 l151 148
-57 56 c-31 30 -110 107 -174 170 l-118 114 0 303 0 303 138 136 c75 74 154
151 175 171 l37 36 -89 87 c-49 49 -128 126 -175 172 l-86 83 0 303 0 303 43
44 c24 23 103 101 175 172 l132 128 -88 85 c-48 47 -134 131 -192 187 -58 56
-109 105 -115 108 -5 3 -41 -25 -79 -63z"/>
<path d="M9483 5244 c-106 -107 -193 -199 -193 -204 0 -13 377 -390 390 -390
14 0 390 377 390 390 0 9 -385 401 -392 399 -2 0 -90 -88 -195 -195z"/>
<path d="M1472 5235 l-192 -195 200 -200 200 -200 200 200 200 200 -195 195
c-106 107 -200 195 -207 194 -7 0 -100 -87 -206 -194z"/>
<path d="M8032 5234 l-192 -195 200 -199 200 -200 100 100 c55 55 145 145 200
200 l100 100 -195 195 c-107 107 -200 195 -207 195 -7 -1 -100 -88 -206 -196z"/>
<path d="M4365 4126 c-16 -19 -91 -97 -166 -175 l-136 -140 -310 -1 -310 -1
-70 73 c-193 200 -243 254 -243 261 0 31 -57 -15 -195 -159 -88 -92 -172 -179
-188 -195 l-27 -28 37 -39 c21 -22 107 -112 192 -201 l155 -161 99 103 c55 56
131 135 170 175 l70 72 311 0 311 0 110 -116 c61 -64 136 -143 168 -175 l58
-58 87 91 c48 49 123 128 167 174 l80 84 311 0 311 0 71 -72 c38 -40 114 -119
169 -175 l99 -103 164 171 c91 94 177 185 193 202 l27 31 -37 36 c-21 21 -108
110 -193 199 l-155 162 -108 -113 c-60 -62 -136 -141 -169 -175 l-60 -63 -312
0 -311 0 -63 67 c-94 100 -271 283 -274 283 -2 -1 -16 -16 -33 -34z"/>
<path d="M8045 3966 c-107 -106 -195 -199 -195 -205 0 -6 88 -99 195 -206
l195 -195 195 195 c107 107 195 199 195 206 0 6 -88 98 -195 205 l-195 194
-195 -194z"/>
<path d="M4197 2680 l-197 -200 195 -195 c107 -107 199 -195 205 -195 6 0 98
88 205 195 l195 195 -200 200 c-110 110 -201 200 -202 199 -2 0 -92 -90 -201
-199z"/>
<path d="M5477 2680 l-197 -200 97 -97 c54 -54 144 -144 200 -200 l103 -103
195 195 c107 107 195 199 195 205 0 9 -386 401 -393 399 -1 0 -91 -90 -200
-199z"/>
<path d="M5480 1401 l-200 -200 194 -196 c108 -107 200 -195 206 -195 6 0 98
88 205 195 l195 195 -200 201 -200 200 -200 -200z"/>
</g>
</svg>
